<svg width="24" height="24" viewBox="0 0 24 24" fill="none" xmlns="http://www.w3.org/2000/svg">
<path d="M2 12.5C2 7.25329 6.25329 3 11.5 3C16.7467 3 21 7.25329 21 12.5C21 17.7467 16.7467 22 11.5 22C6.25329 22 2 17.7467 2 12.5ZM11.0325 4.37071C11.0407 4.48483 11.0161 4.59891 10.9616 4.69953C10.9072 4.80015 10.8251 4.88312 10.7251 4.93868L8.18518 6.34943C8.1333 6.37826 8.07786 6.40016 8.02029 6.41457L7.75768 6.48039L7.90425 7.50571L10.2759 7.98071C10.4083 8.00669 10.5298 8.07195 10.6246 8.168L13.5357 6.71179V5.45439C13.5357 5.29264 13.5935 5.13621 13.6986 5.01329C13.8037 4.89036 13.9493 4.80904 14.1091 4.78396C13.1196 4.44975 12.0751 4.3099 11.0325 4.37071ZM5.92282 6.56725C4.60087 7.80727 3.73146 9.45367 3.45282 11.2446L5.60186 10.1705C5.61762 10.1335 5.6367 10.0981 5.65886 10.0646L7.1775 7.78868C7.26823 7.6525 7.40511 7.5537 7.56293 7.51046L7.42721 6.56318L6.59257 6.7715C6.47305 6.80219 6.34738 6.79937 6.22935 6.76334C6.11133 6.72731 6.00483 6.65946 5.92282 6.56725ZM3.40125 11.6497C3.37207 11.928 3.35714 12.2109 3.35714 12.4966V12.5034C3.35714 13.429 3.51254 14.3192 3.79754 15.1485L5.63646 17.1923C5.6968 17.1197 5.77169 17.0605 5.85632 17.0186L7.07639 16.4079C7.13965 16.3765 7.20742 16.3552 7.27725 16.3448L7.55411 13.0259C7.37949 12.9985 7.22246 12.904 7.11643 12.7626L5.68125 10.8484C5.61969 10.7666 5.57747 10.6719 5.55775 10.5715L3.40125 11.6504V11.6497ZM5.49464 17.5418L4.19043 16.0924C4.57927 16.882 5.09325 17.6036 5.71246 18.2292C5.63737 18.0749 5.5732 17.9155 5.52043 17.7521C5.49857 17.6843 5.48982 17.6129 5.49464 17.5418ZM11.5 20.6429C13.2412 20.6429 14.8549 20.0959 16.1788 19.1649L16.3457 17.8329C16.2676 17.8431 16.1884 17.8397 16.1116 17.8227L14.067 17.3681C13.9254 17.3366 13.7977 17.2605 13.7026 17.1509L10.4251 18.6641C10.4242 18.6732 10.423 18.6823 10.4218 18.6913L10.2446 19.9331C10.2304 20.0308 10.1958 20.1231 10.1456 20.2045C10.4435 20.3714 10.7556 20.5126 11.0684 20.632C11.2109 20.6388 11.3548 20.6429 11.5 20.6429ZM16.708 17.6694L16.556 18.884C18.0083 17.7343 19.0253 16.124 19.4393 14.3186L18.4465 14.8146C18.4327 14.8501 18.4159 14.8844 18.3963 14.9171L16.841 17.5092C16.8052 17.5691 16.7603 17.6231 16.708 17.6694ZM18.4764 14.4204L19.5234 13.8972C19.6021 13.4425 19.6429 12.9764 19.6429 12.5C19.6429 10.7174 19.0701 9.06846 18.0984 7.72761C18.0814 7.88064 18.0127 8.02329 17.9037 8.13204L17.3031 8.73257C17.237 8.79871 17.1579 8.85045 17.0707 8.88455C16.9836 8.91865 16.8904 8.93436 16.7969 8.93071L17.0595 12.422C17.1291 12.468 17.1896 12.5264 17.238 12.5943L18.3665 14.174C18.4207 14.2487 18.4574 14.3335 18.4764 14.4204ZM7.89746 12.9913L7.61518 16.3787C7.66487 16.3971 7.71224 16.4212 7.75632 16.4506L10.1266 18.0304C10.2323 18.1011 10.316 18.2001 10.3681 18.316L13.5506 16.8476C13.5407 16.8008 13.5357 16.753 13.5357 16.7051V13.9772C13.5356 13.8794 13.5567 13.7826 13.5975 13.6936L10.5412 11.911C10.4959 11.9441 10.4466 11.9714 10.3946 11.9924L7.91104 12.9852L7.89746 12.9913ZM10.7597 11.6457L13.8153 13.4283C13.8608 13.3951 13.9103 13.3678 13.9625 13.3469L16.4339 12.3589C16.522 12.3235 16.6166 12.3071 16.7114 12.3107L16.4488 8.81943L13.8648 7.26889C13.7712 7.21268 13.6925 7.1347 13.6355 7.04157L10.7963 8.46114C10.8126 8.52018 10.8214 8.58193 10.8214 8.64571V11.362C10.8215 11.4599 10.8005 11.5567 10.7597 11.6457Z" fill="white"/>
</svg>
