<svg width="24" height="24" viewBox="0 0 24 24" fill="none" xmlns="http://www.w3.org/2000/svg">
<path d="M9.96449 4.41418C10.5765 4.41418 10.8825 4.41418 11.1664 4.5003C11.2918 4.53833 11.4131 4.58859 11.5286 4.65034C11.7903 4.79019 12.0066 5.00657 12.4394 5.43932L17.9394 10.9393C18.9325 11.9324 19.429 12.429 19.5474 13.024C19.5986 13.2816 19.5986 13.5468 19.5474 13.8044C19.429 14.3994 18.9325 14.896 17.9394 15.8891L15.8891 17.9393C14.896 18.9324 14.3995 19.429 13.8044 19.5473C13.5468 19.5986 13.2817 19.5986 13.0241 19.5473C12.429 19.429 11.9325 18.9324 10.9394 17.9393L5.43937 12.4393C5.00663 12.0066 4.79025 11.7902 4.6504 11.5286C4.58865 11.413 4.53839 11.2917 4.50037 11.1663C4.41425 10.8824 4.41425 10.5764 4.41425 9.96444L4.41425 7.91418C4.41425 6.50972 4.41425 5.80749 4.75131 5.30304C4.89722 5.08466 5.08472 4.89716 5.30311 4.75125C5.80755 4.41418 6.50978 4.41418 7.91425 4.41418L9.96449 4.41418Z" stroke="white" stroke-width="1.5"/>
<path d="M7.41425 7.91418C7.41425 7.63804 7.6381 7.41418 7.91425 7.41418V7.41418C8.19039 7.41418 8.41425 7.63804 8.41424 7.91419V7.91419C8.41424 8.19033 8.19039 8.41418 7.91425 8.41418V8.41418C7.6381 8.41418 7.41425 8.19033 7.41425 7.91418V7.91418Z" stroke="white" stroke-width="1.5"/>
</svg>
