<svg width="9" height="16" viewBox="0 0 9 16" fill="none" xmlns="http://www.w3.org/2000/svg">
<path d="M8.33636 0.331456C8.54859 0.543752 8.66782 0.831648 8.66782 1.13183C8.66782 1.43202 8.54859 1.71992 8.33636 1.93221L2.73259 7.53598L8.33636 13.1398C8.54258 13.3533 8.65668 13.6392 8.6541 13.9361C8.65152 14.2329 8.53247 14.5168 8.32257 14.7267C8.11267 14.9366 7.82874 15.0557 7.53191 15.0583C7.23508 15.0608 6.94912 14.9467 6.73561 14.7405L0.331453 8.33636C0.119222 8.12407 -2.86102e-06 7.83617 -2.86102e-06 7.53598C-2.86102e-06 7.2358 0.119222 6.9479 0.331453 6.73561L6.73561 0.331456C6.9479 0.119225 7.2358 0 7.53598 0C7.83617 0 8.12406 0.119225 8.33636 0.331456Z" fill="#3B5F90"/>
</svg>
