<svg width="24" height="24" viewBox="0 0 24 24" fill="none" xmlns="http://www.w3.org/2000/svg">
<path d="M12.0179 10.25C12.9661 10.25 13.4402 10.25 13.8802 10.0163C14.1434 9.87648 14.4736 9.57023 14.6328 9.31826C14.8989 8.89708 14.9256 8.54324 14.9789 7.83557C15.0082 7.44763 15.0071 7.06594 14.9751 6.67106C14.9175 5.95801 14.8887 5.60148 14.6289 5.18726C14.4653 4.92644 14.1305 4.61765 13.8573 4.4756C13.4235 4.25 12.9533 4.25 12.0129 4.25V4.25C11.0363 4.25 10.5479 4.25 10.1082 4.48338C9.82774 4.63223 9.49696 4.9454 9.33302 5.21731C9.07596 5.64365 9.05506 6.02571 9.01326 6.78982C8.99635 7.09898 8.99567 7.40116 9.01092 7.70586C9.04931 8.47283 9.06851 8.85631 9.33198 9.28942C9.4922 9.55281 9.8169 9.86166 10.088 10.0085C10.5337 10.25 11.0285 10.25 12.0179 10.25V10.25Z" stroke="white" stroke-width="1.5"/>
<path d="M18.5 19.75L18.583 18.8652C18.7267 17.332 18.7986 16.5654 18.2254 15.5004C18.0456 15.1664 17.5292 14.5401 17.2356 14.2999C16.2994 13.5342 15.7598 13.481 14.6805 13.3745C13.9049 13.298 13.0142 13.25 12 13.25C10.9858 13.25 10.0951 13.298 9.31945 13.3745C8.24021 13.481 7.70059 13.5342 6.76443 14.2999C6.47077 14.5401 5.95441 15.1664 5.77462 15.5004C5.20144 16.5654 5.27331 17.332 5.41705 18.8652L5.5 19.75" stroke="white" stroke-width="1.5" stroke-linecap="round"/>
</svg>
