<svg width="27" height="30" viewBox="0 0 27 30" fill="none" xmlns="http://www.w3.org/2000/svg">
<path d="M11.5294 29.5C13.3473 29.5 14.8219 28.0254 14.8219 26.2059H8.23681C8.23681 28.0254 9.71143 29.5 11.5294 29.5ZM22.6155 21.7944C21.6211 20.7258 19.7605 19.1184 19.7605 13.853C19.7605 9.85379 16.9564 6.65234 13.1754 5.8669V4.79426C13.1754 3.88479 12.4383 3.14722 11.5294 3.14722C10.6204 3.14722 9.88334 3.88479 9.88334 4.79426V5.8669C6.10234 6.65234 3.29825 9.85379 3.29825 13.853C3.29825 19.1184 1.4376 20.7258 0.443194 21.7944C0.134373 22.1264 -0.00253792 22.5232 3.55859e-05 22.9118C0.00569731 23.7559 0.668119 24.5588 1.65223 24.5588H21.4065C22.3906 24.5588 23.0535 23.7559 23.0587 22.9118C23.0613 22.5232 22.9244 22.1258 22.6155 21.7944Z" fill="#C5C7CD"/>
<circle cx="19.7646" cy="6.44114" r="5.69114" fill="#3B5F90" stroke="#F7F8FC" stroke-width="1.5"/>
</svg>
