<svg width="51" height="50" viewBox="0 0 51 50" fill="none" xmlns="http://www.w3.org/2000/svg">
<circle cx="25.5" cy="25" r="24.5" stroke="#3B5F90"/>
<path d="M28.6943 22C30.4727 22 31.3619 22 31.9149 22.4534C32.1519 22.6478 32.3411 22.8941 32.4679 23.1732C32.7635 23.8244 32.5344 24.6835 32.0762 26.4018L31.2762 29.4018C30.9921 30.4672 30.85 30.9998 30.5075 31.3661C30.358 31.5259 30.1833 31.6602 29.9903 31.7634C29.5482 32 28.9969 32 27.8943 32L22.6056 32C21.503 32 20.9518 32 20.5096 31.7634C20.3167 31.6602 20.1419 31.5259 19.9925 31.3661C19.6499 30.9998 19.5079 30.4672 19.2238 29.4018L18.4238 26.4018C17.9656 24.6835 17.7365 23.8244 18.0321 23.1732C18.1588 22.8941 18.348 22.6478 18.5851 22.4534C19.1381 22 20.0273 22 21.8056 22L28.6943 22Z" stroke="#3B5F90" stroke-width="1.5"/>
<path d="M27.25 26V28" stroke="#3B5F90" stroke-width="1.5" stroke-linecap="round"/>
<path d="M23.25 26V28" stroke="#3B5F90" stroke-width="1.5" stroke-linecap="round"/>
<path d="M27.25 17L30.25 22" stroke="#3B5F90" stroke-width="1.5" stroke-linecap="round"/>
<path d="M23.25 17L20.25 22" stroke="#3B5F90" stroke-width="1.5" stroke-linecap="round"/>
</svg>
