<svg width="26" height="26" viewBox="0 0 26 26" fill="none" xmlns="http://www.w3.org/2000/svg">
<path d="M20.8878 19.7376C20.9633 19.8131 21.0232 19.9027 21.064 20.0014C21.1049 20.1 21.1259 20.2057 21.1259 20.3125C21.1259 20.4192 21.1049 20.5249 21.064 20.6236C21.0232 20.7222 20.9633 20.8118 20.8878 20.8873C20.8123 20.9628 20.7227 21.0227 20.6241 21.0635C20.5254 21.1044 20.4197 21.1254 20.313 21.1254C20.2062 21.1254 20.1005 21.1044 20.0018 21.0635C19.9032 21.0227 19.8136 20.9628 19.7381 20.8873L13.0005 14.1486L6.2628 20.8873C6.11034 21.0398 5.90356 21.1254 5.68795 21.1254C5.47234 21.1254 5.26557 21.0398 5.11311 20.8873C4.96065 20.7348 4.875 20.5281 4.875 20.3125C4.875 20.0969 4.96065 19.8901 5.11311 19.7376L11.8518 13L5.11311 6.26231C4.96065 6.10985 4.875 5.90307 4.875 5.68746C4.875 5.47186 4.96065 5.26508 5.11311 5.11262C5.26557 4.96016 5.47234 4.87451 5.68795 4.87451C5.90356 4.87451 6.11034 4.96016 6.2628 5.11262L13.0005 11.8513L19.7381 5.11262C19.8906 4.96016 20.0973 4.87451 20.313 4.87451C20.5286 4.87451 20.7353 4.96016 20.8878 5.11262C21.0403 5.26508 21.1259 5.47186 21.1259 5.68746C21.1259 5.90307 21.0403 6.10985 20.8878 6.26231L14.1491 13L20.8878 19.7376Z" fill="#3B5F90"/>
</svg>
