<svg width="24" height="24" viewBox="0 0 24 24" fill="none" xmlns="http://www.w3.org/2000/svg">
<path d="M6 9V17.3215C6 17.9396 6 18.2487 6.06752 18.5019C6.25329 19.1986 6.79968 19.7414 7.4976 19.9225C7.75126 19.9883 8.06033 19.9863 8.67848 19.9822V19.9822C8.98387 19.9801 9.13657 19.9791 9.26195 19.9451C9.6068 19.8515 9.8755 19.581 9.96681 19.2355C10 19.1099 10 18.9572 10 18.6518V16.2955C10 15.5932 10 15.2421 10.1685 14.9899C10.2415 14.8807 10.3352 14.7869 10.4444 14.714C10.6967 14.5455 11.0478 14.5455 11.75 14.5455H12.25C12.9522 14.5455 13.3033 14.5455 13.5556 14.714C13.6648 14.7869 13.7585 14.8807 13.8315 14.9899C14 15.2421 14 15.5932 14 16.2955V18.6518C14 18.9572 14 19.1099 14.0332 19.2355C14.1245 19.581 14.3932 19.8515 14.7381 19.9451C14.8634 19.9791 15.0161 19.9801 15.3215 19.9822V19.9822C15.9397 19.9863 16.2487 19.9883 16.5024 19.9225C17.2003 19.7414 17.7467 19.1986 17.9325 18.5019C18 18.2487 18 17.9396 18 17.3215V9" stroke="white" stroke-width="1.5" stroke-linejoin="round"/>
<path d="M4.11594 8.17395L4.86074 5.62035C4.95248 5.30582 5.11179 5.01511 5.32754 4.76853C5.75488 4.28014 6.37225 4 7.02121 4H16.9788C17.6278 4 18.2451 4.28014 18.6725 4.76853C18.8882 5.01511 19.0475 5.30582 19.1393 5.62035L19.8841 8.17396C20.2142 9.30593 18.8693 10.1737 17.974 9.40629C17.4489 8.95621 16.6517 9.04917 16.2442 9.60798L15.75 10.2857C15.1321 11.1331 13.8679 11.1331 13.25 10.2857C12.6321 9.43831 11.3679 9.43831 10.75 10.2857C10.1321 11.1331 8.86791 11.1331 8.25001 10.2857L7.75583 9.60798C7.34836 9.04917 6.55109 8.95621 6.026 9.40629C5.13073 10.1737 3.78578 9.30593 4.11594 8.17395Z" stroke="white" stroke-width="1.5"/>
</svg>
