<svg width="40" height="40" viewBox="0 0 40 40" fill="none" xmlns="http://www.w3.org/2000/svg">
<g clip-path="url(#clip0_1165_3326)">
<path d="M24.1667 12.4999C24.3856 12.2811 24.6454 12.1074 24.9314 11.989C25.2173 11.8705 25.5238 11.8096 25.8334 11.8096C26.1429 11.8096 26.4494 11.8705 26.7353 11.989C27.0213 12.1074 27.2812 12.2811 27.5 12.4999C27.7189 12.7188 27.8925 12.9786 28.011 13.2646C28.1294 13.5506 28.1904 13.8571 28.1904 14.1666C28.1904 14.4761 28.1294 14.7826 28.011 15.0686C27.8925 15.3546 27.7189 15.6144 27.5 15.8333L16.25 27.0833L11.6667 28.3333L12.9167 23.7499L24.1667 12.4999Z" stroke="#667085" stroke-width="1.66667" stroke-linecap="round" stroke-linejoin="round"/>
</g>
<defs>
<clipPath id="clip0_1165_3326">
<rect width="20" height="20" fill="white" transform="translate(10 10)"/>
</clipPath>
</defs>
</svg>
