<svg width="24" height="27" viewBox="0 0 24 27" fill="none" xmlns="http://www.w3.org/2000/svg">
<path d="M11.5294 26.4992C13.3473 26.4992 14.8219 25.0246 14.8219 23.2052H8.23681C8.23681 25.0246 9.71143 26.4992 11.5294 26.4992ZM22.6155 18.7936C21.6211 17.7251 19.7605 16.1177 19.7605 10.8523C19.7605 6.85306 16.9564 3.65161 13.1754 2.86617V1.79353C13.1754 0.884053 12.4383 0.146484 11.5294 0.146484C10.6204 0.146484 9.88334 0.884053 9.88334 1.79353V2.86617C6.10234 3.65161 3.29825 6.85306 3.29825 10.8523C3.29825 16.1177 1.4376 17.7251 0.443194 18.7936C0.134373 19.1256 -0.00253792 19.5225 3.55859e-05 19.9111C0.00569731 20.7552 0.668119 21.5581 1.65223 21.5581H21.4065C22.3906 21.5581 23.0535 20.7552 23.0587 19.9111C23.0613 19.5225 22.9244 19.1251 22.6155 18.7936Z" fill="#C5C7CD"/>
</svg>
