<svg width="24" height="24" viewBox="0 0 24 24" fill="none" xmlns="http://www.w3.org/2000/svg">
<path d="M5.08929 20.1429C4.61786 20.1429 4.21414 19.9749 3.87814 19.6389C3.54214 19.3029 3.37443 18.8994 3.375 18.4286V6.42857C3.375 5.95715 3.543 5.55343 3.879 5.21743C4.215 4.88143 4.61843 4.71372 5.08929 4.71429H5.94643V3.85715C5.94643 3.61429 6.02871 3.41057 6.19329 3.246C6.35786 3.08143 6.56129 2.99943 6.80357 3C7.04643 3 7.25014 3.08229 7.41471 3.24686C7.57929 3.41143 7.66129 3.61486 7.66071 3.85715V4.71429H14.5179V3.85715C14.5179 3.61429 14.6001 3.41057 14.7647 3.246C14.9293 3.08143 15.1327 2.99943 15.375 3C15.6179 3 15.8216 3.08229 15.9861 3.24686C16.1507 3.41143 16.2327 3.61486 16.2321 3.85715V4.71429H17.0893C17.5607 4.71429 17.9644 4.88229 18.3004 5.21829C18.6364 5.55429 18.8041 5.95772 18.8036 6.42857V11.5714H17.0893V9.85714H5.08929V18.4286H11.0893V20.1429H5.08929ZM5.08929 8.14286H17.0893V6.42857H5.08929V8.14286ZM19.7679 15.8571L17.9464 14.0357L18.5679 13.4143C18.725 13.2571 18.925 13.1786 19.1679 13.1786C19.4107 13.1786 19.6107 13.2571 19.7679 13.4143L20.3893 14.0357C20.5464 14.1929 20.625 14.3929 20.625 14.6357C20.625 14.8786 20.5464 15.0786 20.3893 15.2357L19.7679 15.8571ZM12.8036 20.5714V19.5429C12.8036 19.4286 12.825 19.3177 12.8679 19.2103C12.9107 19.1029 12.975 19.0066 13.0607 18.9214L17.3464 14.6357L19.1679 16.4571L14.8821 20.7429C14.7964 20.8286 14.6999 20.8929 14.5924 20.9357C14.485 20.9786 14.3744 21 14.2607 21H13.2321C13.1179 21 13.0179 20.9571 12.9321 20.8714C12.8464 20.7857 12.8036 20.6857 12.8036 20.5714Z" fill="white"/>
</svg>
