<svg width="51" height="50" viewBox="0 0 51 50" fill="none" xmlns="http://www.w3.org/2000/svg">
<circle cx="25.3" cy="25" r="24.5" stroke="#3B5F90"/>
<path d="M31.6129 22.3221H28.6757C28.481 22.3221 28.2942 22.2447 28.1565 22.107C28.0188 21.9693 27.9414 21.7825 27.9414 21.5878C27.9414 21.393 28.0188 21.2063 28.1565 21.0686C28.2942 20.9309 28.481 20.8535 28.6757 20.8535H31.6129C31.8077 20.8535 31.9944 20.9309 32.1321 21.0686C32.2699 21.2063 32.3472 21.393 32.3472 21.5878C32.3472 21.7825 32.2699 21.9693 32.1321 22.107C31.9944 22.2447 31.8077 22.3221 31.6129 22.3221ZM22.8013 20.8535H21.5775V19.6297C21.5775 19.4349 21.5001 19.2481 21.3624 19.1104C21.2247 18.9727 21.0379 18.8953 20.8432 18.8953C20.6484 18.8953 20.4616 18.9727 20.3239 19.1104C20.1862 19.2481 20.1089 19.4349 20.1089 19.6297V20.8535H18.885C18.6903 20.8535 18.5035 20.9309 18.3658 21.0686C18.2281 21.2063 18.1507 21.393 18.1507 21.5878C18.1507 21.7825 18.2281 21.9693 18.3658 22.107C18.5035 22.2447 18.6903 22.3221 18.885 22.3221H20.1089V23.5459C20.1089 23.7407 20.1862 23.9275 20.3239 24.0652C20.4616 24.2029 20.6484 24.2802 20.8432 24.2802C21.0379 24.2802 21.2247 24.2029 21.3624 24.0652C21.5001 23.9275 21.5775 23.7407 21.5775 23.5459V22.3221H22.8013C22.996 22.3221 23.1828 22.2447 23.3205 22.107C23.4582 21.9693 23.5356 21.7825 23.5356 21.5878C23.5356 21.393 23.4582 21.2063 23.3205 21.0686C23.1828 20.9309 22.996 20.8535 22.8013 20.8535ZM39.4259 33.2754C39.0423 33.8232 38.5324 34.2705 37.9393 34.5794C37.3462 34.8883 36.6874 35.0498 36.0187 35.05C34.9173 35.0475 33.8616 34.6098 33.0815 33.8323L33.0497 33.798L28.1103 28.1965H23.3667L18.4334 33.7968L18.3955 33.8262C17.6172 34.6071 16.5608 35.0473 15.4583 35.05C14.8508 35.0496 14.2509 34.9162 13.7005 34.6592C13.1501 34.4022 12.6626 34.0278 12.2724 33.5623C11.8821 33.0968 11.5985 32.5515 11.4415 31.9647C11.2844 31.3779 11.2577 30.7639 11.3633 30.1657C11.3633 30.1657 11.3633 30.1583 11.3633 30.1534L13.3655 19.8597C13.6536 18.2189 14.5107 16.732 15.7862 15.6603C17.0618 14.5887 18.6742 14.0008 20.3402 14H31.1234C32.785 14.0021 34.3934 14.5864 35.669 15.6514C36.9446 16.7163 37.8066 18.1945 38.1054 19.8291V19.8524L40.1137 30.1546V30.1681C40.2102 30.7058 40.1991 31.2573 40.0811 31.7907C39.963 32.3241 39.7403 32.8287 39.4259 33.2754ZM31.1234 26.7279C32.6165 26.7279 34.0484 26.1348 35.1041 25.079C36.1599 24.0233 36.753 22.5913 36.753 21.0983C36.753 19.6052 36.1599 18.1733 35.1041 17.1175C34.0484 16.0617 32.6165 15.4686 31.1234 15.4686H20.3402C19.0187 15.4696 17.74 15.9364 16.7287 16.787C15.7174 17.6376 15.0383 18.8175 14.8109 20.1192C14.8103 20.1232 14.8103 20.1274 14.8109 20.1314L12.8062 30.4276C12.7084 30.9895 12.7915 31.5679 13.0436 32.0795C13.2957 32.5911 13.7037 33.0095 14.2089 33.2742C14.714 33.539 15.2902 33.6365 15.8544 33.5527C16.4185 33.4689 16.9415 33.2081 17.3479 32.8079L22.488 26.9763C22.5573 26.8989 22.6422 26.8371 22.7371 26.7949C22.832 26.7527 22.9348 26.7311 23.0387 26.7316L31.1234 26.7279ZM38.6708 30.4276L37.4726 24.2655C36.8834 25.4455 35.9774 26.4381 34.856 27.1324C33.7347 27.8266 32.4422 28.1951 31.1234 28.1965H30.0672L34.1291 32.8079C34.5355 33.2081 35.0585 33.4689 35.6226 33.5527C36.1868 33.6365 36.763 33.539 37.2681 33.2742C37.7733 33.0095 38.1813 32.5911 38.4334 32.0795C38.6855 31.5679 38.7686 30.9895 38.6708 30.4276Z" fill="#3B5F90"/>
</svg>
