<svg width="20" height="16" viewBox="0 0 20 16" fill="none" xmlns="http://www.w3.org/2000/svg">
<path d="M18.2621 7.72377C17.5433 4.52288 16.4773 2.48105 14.7687 1.98348C14.4377 1.88839 14.0946 1.84095 13.7499 1.84264C12.6995 1.84264 11.8706 2.45835 9.99986 2.45835C8.12914 2.45835 7.29866 1.84264 6.24982 1.84264C5.89073 1.84081 5.53313 1.88821 5.18731 1.98348C3.47635 2.48105 2.41931 4.5248 1.69235 7.72377C0.950153 10.9912 1.08453 13.573 2.53533 14.0686C3.55096 14.4149 4.45918 13.6988 5.31934 12.6448C6.29591 11.4442 7.49866 11.0747 9.99986 11.0747C12.5011 11.0747 13.6569 11.4442 14.6351 12.6448C15.4945 13.6996 16.4363 14.4068 17.4249 14.0748C19.0273 13.5356 19.0046 11.0297 18.2621 7.72377Z" stroke="white" stroke-width="2" stroke-miterlimit="10"/>
<path d="M11.6204 7.67595C11.9783 7.67595 12.2685 7.24067 12.2685 6.70373C12.2685 6.16679 11.9783 5.73151 11.6204 5.73151C11.2624 5.73151 10.9722 6.16679 10.9722 6.70373C10.9722 7.24067 11.2624 7.67595 11.6204 7.67595Z" fill="white"/>
<path d="M13.2407 8.9722C13.0483 8.9722 12.8603 8.93414 12.7003 8.86285C12.5404 8.79156 12.4158 8.69024 12.3423 8.57171C12.2688 8.45318 12.2496 8.32278 12.2874 8.19701C12.3251 8.07123 12.4179 7.95575 12.5541 7.86517C12.6903 7.77459 12.8638 7.71299 13.0525 7.68816C13.2413 7.66333 13.4368 7.6764 13.6145 7.72571C13.7921 7.77501 13.9437 7.85834 14.0503 7.96514C14.1568 8.07194 14.2134 8.19741 14.2129 8.32567C14.2123 8.49729 14.1096 8.66173 13.9273 8.78293C13.7451 8.90414 13.4981 8.9722 13.2407 8.9722Z" fill="white"/>
<path d="M13.2407 5.73148C13.7777 5.73148 14.2129 5.44129 14.2129 5.08333C14.2129 4.72537 13.7777 4.43518 13.2407 4.43518C12.7038 4.43518 12.2685 4.72537 12.2685 5.08333C12.2685 5.44129 12.7038 5.73148 13.2407 5.73148Z" fill="white"/>
<path d="M14.8611 7.67595C15.2191 7.67595 15.5092 7.24067 15.5092 6.70373C15.5092 6.16679 15.2191 5.73151 14.8611 5.73151C14.5031 5.73151 14.213 6.16679 14.213 6.70373C14.213 7.24067 14.5031 7.67595 14.8611 7.67595Z" fill="white"/>
<path d="M6.43517 5.08331V8.32405M8.37961 6.70368H4.49072" stroke="white" stroke-width="2" stroke-linecap="round" stroke-linejoin="round"/>
</svg>
