<svg width="24" height="24" viewBox="0 0 24 24" fill="none" xmlns="http://www.w3.org/2000/svg">
<path d="M12.4998 8.72253V21M4 9.66696C4 9.41648 4.0995 9.17626 4.27661 8.99915C4.45373 8.82204 4.69395 8.72253 4.94442 8.72253H20.0552C20.3056 8.72253 20.5459 8.82204 20.723 8.99915C20.9001 9.17626 20.9996 9.41648 20.9996 9.66696V11.5558C20.9996 11.8063 20.9001 12.0465 20.723 12.2236C20.5459 12.4007 20.3056 12.5002 20.0552 12.5002H4.94442C4.69395 12.5002 4.45373 12.4007 4.27661 12.2236C4.0995 12.0465 4 11.8063 4 11.5558V9.66696Z" stroke="white" stroke-width="2" stroke-linecap="round" stroke-linejoin="round"/>
<path d="M19.1108 12.5002V19.1112C19.1108 19.6121 18.9118 20.0925 18.5575 20.4468C18.2033 20.801 17.7229 21 17.2219 21H7.7777C7.27675 21 6.79631 20.801 6.44208 20.4468C6.08786 20.0925 5.88885 19.6121 5.88885 19.1112V12.5002M8.24991 8.72252C7.62372 8.72252 7.02318 8.47377 6.58039 8.03098C6.13761 7.5882 5.88885 6.98766 5.88885 6.36147C5.88885 5.73528 6.13761 5.13473 6.58039 4.69195C7.02318 4.24917 7.62372 4.00041 8.24991 4.00041C9.16098 3.98454 10.0538 4.42659 10.8119 5.26892C11.57 6.11125 12.1582 7.31477 12.4998 8.72252C12.8414 7.31477 13.4296 6.11125 14.1877 5.26892C14.9458 4.42659 15.8386 3.98454 16.7497 4.00041C17.3759 4.00041 17.9764 4.24917 18.4192 4.69195C18.862 5.13473 19.1108 5.73528 19.1108 6.36147C19.1108 6.98766 18.862 7.5882 18.4192 8.03098C17.9764 8.47377 17.3759 8.72252 16.7497 8.72252" stroke="white" stroke-width="2" stroke-linecap="round" stroke-linejoin="round"/>
</svg>
