<svg width="18" height="18" viewBox="0 0 18 18" fill="none" xmlns="http://www.w3.org/2000/svg">
<path d="M5.83599 10.8378L10.836 5.83782C10.9232 5.75061 11.0267 5.68144 11.1407 5.63424C11.2546 5.58705 11.3767 5.56276 11.5001 5.56276C11.6234 5.56276 11.7455 5.58705 11.8594 5.63424C11.9734 5.68144 12.0769 5.75061 12.1641 5.83782C12.2513 5.92503 12.3205 6.02856 12.3677 6.1425C12.4149 6.25644 12.4392 6.37856 12.4392 6.50188C12.4392 6.62521 12.4149 6.74733 12.3677 6.86127C12.3205 6.97521 12.2513 7.07874 12.1641 7.16595L7.16412 12.1659C6.988 12.3421 6.74913 12.441 6.50005 12.441C6.25098 12.441 6.01211 12.3421 5.83599 12.1659C5.65987 11.9898 5.56093 11.751 5.56093 11.5019C5.56093 11.2528 5.65987 11.0139 5.83599 10.8378ZM16.0704 1.93157C15.1904 1.05361 13.9982 0.560547 12.7551 0.560547C11.5121 0.560547 10.3198 1.05361 9.4399 1.93157L7.08677 4.28235C6.91065 4.45847 6.81171 4.69734 6.81171 4.94641C6.81171 5.19549 6.91065 5.43436 7.08677 5.61048C7.26289 5.7866 7.50176 5.88554 7.75084 5.88554C7.99991 5.88554 8.23878 5.7866 8.4149 5.61048L10.7641 3.26204C11.0253 3.00078 11.3354 2.79353 11.6767 2.65212C12.018 2.51071 12.3839 2.4379 12.7533 2.43787C13.1227 2.43783 13.4886 2.51056 13.8299 2.65191C14.1712 2.79325 14.4814 3.00044 14.7426 3.26165C15.0039 3.52286 15.2111 3.83296 15.3526 4.17427C15.494 4.51557 15.5668 4.88139 15.5668 5.25083C15.5668 5.62026 15.4941 5.98609 15.3528 6.32743C15.2114 6.66876 15.0042 6.97891 14.743 7.24016L12.3907 9.58782C12.2146 9.76394 12.1156 10.0028 12.1156 10.2519C12.1156 10.501 12.2146 10.7398 12.3907 10.9159C12.5668 11.0921 12.8057 11.191 13.0547 11.191C13.3038 11.191 13.5427 11.0921 13.7188 10.9159L16.0688 8.56751C16.9472 7.68703 17.4403 6.49395 17.4399 5.25023C17.4395 4.0065 16.9455 2.81378 16.0665 1.93391L16.0704 1.93157ZM9.58755 12.3909L7.23833 14.7409C6.97708 15.0022 6.66693 15.2093 6.3256 15.3507C5.98426 15.492 5.61844 15.5648 5.249 15.5647C4.87956 15.5647 4.51374 15.4919 4.17244 15.3505C3.83114 15.2091 3.52103 15.0018 3.25982 14.7406C2.73229 14.2129 2.43596 13.4973 2.43604 12.7512C2.43611 12.0051 2.73257 11.2896 3.26021 10.762L5.60865 8.41282C5.69585 8.32562 5.76503 8.22209 5.81222 8.10815C5.85942 7.99421 5.88371 7.87209 5.88371 7.74876C5.88371 7.62543 5.85942 7.50331 5.81222 7.38937C5.76503 7.27543 5.69585 7.1719 5.60865 7.0847C5.52144 6.99749 5.41791 6.92831 5.30397 6.88112C5.19003 6.83392 5.06791 6.80963 4.94458 6.80963C4.82126 6.80963 4.69914 6.83392 4.5852 6.88112C4.47126 6.92831 4.36773 6.99749 4.28052 7.0847L1.93365 9.43626C1.05439 10.3156 0.560474 11.5082 0.560547 12.7518C0.56062 13.9953 1.05468 15.1879 1.93404 16.0671C2.8134 16.9464 4.00602 17.4403 5.24955 17.4402C6.49308 17.4401 7.68564 16.9461 8.5649 16.0667L10.9133 13.7175C11.0895 13.5414 11.1884 13.3025 11.1884 13.0534C11.1884 12.8044 11.0895 12.5655 10.9133 12.3894C10.7372 12.2133 10.4983 12.1143 10.2493 12.1143C10.0002 12.1143 9.76133 12.2133 9.58521 12.3894L9.58755 12.3909Z" fill="#232D42"/>
</svg>
