<svg width="105" height="33" viewBox="0 0 105 33" fill="none" xmlns="http://www.w3.org/2000/svg">
<path d="M3.48 32.48C2.81333 32.48 2.18667 32.2933 1.6 31.92C1.01333 31.5467 0.72 31.0667 0.72 30.48C0.72 30.1867 0.786667 29.8267 0.92 29.4C1.05333 29 1.17333 28.6267 1.28 28.28C2.13333 25.6667 2.93333 23.2267 3.68 20.96C4.42667 18.6933 5.17333 16.4933 5.92 14.36C6.66667 12.2267 7.45333 10.0933 8.28 7.96C9.13333 5.82667 10.08 3.6 11.12 1.28C10.1067 1.46667 9.2 1.74666 8.4 2.12C7.62667 2.46666 7 2.78667 6.52 3.08C6.04 3.34667 5.72 3.48 5.56 3.48C5.45333 3.48 5.29333 3.42667 5.08 3.32C4.89333 3.18667 4.72 3.04 4.56 2.88C4.4 2.69333 4.32 2.53333 4.32 2.4C5.01333 2.10666 5.82667 1.78666 6.76 1.44C7.72 1.09333 8.74667 0.799999 9.84 0.559999C10.9333 0.319999 12.04 0.199999 13.16 0.199999C14.3333 0.199999 15.52 0.359999 16.72 0.68C17.9467 0.999999 19.0667 1.49333 20.08 2.16C21.0933 2.8 21.9067 3.6 22.52 4.56C23.1333 5.52 23.44 6.64 23.44 7.92C23.44 9.30667 23.1333 10.5067 22.52 11.52C21.9067 12.5067 21.0933 13.3467 20.08 14.04C19.0667 14.7067 17.9733 15.2533 16.8 15.68C15.6267 16.08 14.4533 16.4 13.28 16.64C12.1333 16.8533 11.1067 17 10.2 17.08C9.29333 17.1333 8.62667 17.16 8.2 17.16H7.8C7 19.9067 6.22667 22.6133 5.48 25.28C4.76 27.9467 4.09333 30.3467 3.48 32.48ZM7.96 16.52C9.42667 16.44 10.9067 16.2 12.4 15.8C13.92 15.4 15.3067 14.8267 16.56 14.08C17.8133 13.3067 18.8267 12.36 19.6 11.24C20.3733 10.0933 20.76 8.76 20.76 7.24C20.76 5.8 20.4133 4.62666 19.72 3.72C19.0533 2.81333 18.16 2.14667 17.04 1.72C15.9467 1.26666 14.7733 1.04 13.52 1.04C12.5333 2.98666 11.5733 5.32 10.64 8.04C9.70667 10.76 8.81333 13.5867 7.96 16.52ZM23.2653 30.76C21.6386 30.76 20.412 30.3067 19.5853 29.4C18.7853 28.52 18.3853 27.4267 18.3853 26.12C18.3853 24.92 18.6786 23.6533 19.2653 22.32C19.8786 20.9867 20.6786 19.7333 21.6653 18.56C22.6786 17.3867 23.7853 16.44 24.9853 15.72C26.1853 14.9733 27.372 14.6 28.5453 14.6C29.1586 14.6 29.7186 14.76 30.2253 15.08C30.7586 15.4 31.0253 16.0533 31.0253 17.04C31.0253 18.0533 30.7186 19.0133 30.1053 19.92C29.5186 20.8 28.732 21.5867 27.7453 22.28C26.7853 22.9733 25.7186 23.5467 24.5453 24C23.3986 24.4267 22.252 24.6933 21.1053 24.8C21.052 25.0667 21.012 25.32 20.9853 25.56C20.9586 25.8 20.9453 26.0267 20.9453 26.24C20.9453 26.64 20.9853 27.04 21.0653 27.44C21.172 27.84 21.3453 28.2133 21.5853 28.56C21.8253 28.88 22.1453 29.1333 22.5453 29.32C22.972 29.5067 23.492 29.6 24.1053 29.6C25.252 29.6 26.3853 29.28 27.5053 28.64C28.6253 27.9733 29.6653 27.1067 30.6253 26.04C31.5853 24.9733 32.3986 23.8 33.0653 22.52L33.5453 22.88C32.8253 24.48 31.9053 25.8667 30.7853 27.04C29.692 28.2133 28.492 29.12 27.1853 29.76C25.9053 30.4267 24.5986 30.76 23.2653 30.76ZM21.3053 24.04C22.0253 23.8 22.8386 23.4533 23.7453 23C24.652 22.52 25.5186 21.96 26.3453 21.32C27.1986 20.68 27.892 19.9733 28.4253 19.2C28.9853 18.4267 29.2653 17.6133 29.2653 16.76C29.2653 16.4667 29.212 16.24 29.1053 16.08C28.9986 15.92 28.772 15.84 28.4253 15.84C27.7853 15.84 27.1053 16.0933 26.3853 16.6C25.6653 17.08 24.972 17.72 24.3053 18.52C23.6386 19.32 23.0386 20.2 22.5053 21.16C21.972 22.12 21.572 23.08 21.3053 24.04ZM45.1856 29.8C44.2523 29.8 43.5456 29.56 43.0656 29.08C42.6123 28.6 42.3856 27.9867 42.3856 27.24C42.3856 26.68 42.479 26.0933 42.6656 25.48C42.879 24.8667 43.079 24.24 43.2656 23.6C43.4523 22.9333 43.5456 22.2933 43.5456 21.68C43.5456 20.9333 43.3856 20.4267 43.0656 20.16C42.7723 19.8667 42.399 19.72 41.9456 19.72C41.119 19.72 40.279 20.0667 39.4256 20.76C38.5723 21.4267 37.7456 22.2933 36.9456 23.36C36.1456 24.4 35.399 25.48 34.7056 26.6C34.0123 27.72 33.399 28.72 32.8656 29.6C32.439 29.6 32.039 29.52 31.6656 29.36C31.2656 29.2267 30.959 29.0133 30.7456 28.72C30.7456 28.5867 30.8923 28.1733 31.1856 27.48C31.4523 26.7867 31.7723 25.9333 32.1456 24.92C32.519 23.9067 32.8523 22.8667 33.1456 21.8C33.439 20.7333 33.5856 19.76 33.5856 18.88C33.7456 18.6933 33.999 18.5067 34.3456 18.32C34.6923 18.1333 35.0523 18.04 35.4256 18.04C36.1456 18.04 36.5056 18.3867 36.5056 19.08C36.5056 19.5067 36.3856 20.2267 36.1456 21.24C35.9056 22.2267 35.599 23.2667 35.2256 24.36C35.9456 23.2667 36.7456 22.1867 37.6256 21.12C38.5323 20.0267 39.4923 19.12 40.5056 18.4C41.519 17.68 42.5323 17.32 43.5456 17.32C44.5856 17.32 45.3323 17.6933 45.7856 18.44C46.2656 19.1867 46.5056 20.0133 46.5056 20.92C46.5056 21.7467 46.3723 22.52 46.1056 23.24C45.839 23.9333 45.559 24.6133 45.2656 25.28C44.999 25.92 44.8656 26.5733 44.8656 27.24C44.8656 27.8 44.9723 28.2 45.1856 28.44C45.4256 28.6533 45.719 28.76 46.0656 28.76C46.7323 28.76 47.399 28.4533 48.0656 27.84C48.7323 27.2 49.3723 26.4 49.9856 25.44C50.6256 24.48 51.1856 23.5067 51.6656 22.52L52.1056 23.04C51.5456 24.3467 50.919 25.5067 50.2256 26.52C49.5323 27.5333 48.7723 28.3333 47.9456 28.92C47.119 29.5067 46.199 29.8 45.1856 29.8ZM46.4256 14.76C45.7056 14.76 44.959 14.6133 44.1856 14.32C43.4123 14 42.6256 13.6933 41.8256 13.4C41.0523 13.08 40.2523 12.92 39.4256 12.92C39.079 12.92 38.719 12.9733 38.3456 13.08C37.9723 13.16 37.6123 13.3067 37.2656 13.52C37.799 12.7733 38.359 12.2533 38.9456 11.96C39.5323 11.6667 40.1323 11.52 40.7456 11.52C41.4923 11.52 42.2656 11.68 43.0656 12C43.8656 12.32 44.7056 12.64 45.5856 12.96C46.4656 13.28 47.3856 13.44 48.3456 13.44C48.7723 13.44 49.2256 13.3333 49.7056 13.12C49.199 13.7333 48.6656 14.16 48.1056 14.4C47.5723 14.64 47.0123 14.76 46.4256 14.76ZM53.7784 30.04C52.7384 30.04 51.9651 29.7067 51.4584 29.04C50.9518 28.4 50.6984 27.6133 50.6984 26.68C50.6984 26.0667 50.8051 25.2933 51.0184 24.36C51.2584 23.4267 51.5651 22.4533 51.9384 21.44C52.3118 20.4 52.7384 19.4267 53.2184 18.52C53.7251 17.6133 54.2584 16.88 54.8184 16.32C55.3784 15.7333 55.9251 15.44 56.4584 15.44C56.6984 15.44 56.8984 15.52 57.0584 15.68C57.2451 15.8133 57.3384 16.0267 57.3384 16.32C57.3384 16.64 57.1251 17.16 56.6984 17.88C56.2984 18.6 55.8184 19.4267 55.2584 20.36C54.6984 21.2933 54.2051 22.28 53.7784 23.32C53.3784 24.3333 53.1784 25.3067 53.1784 26.24C53.1784 27.2 53.3384 27.84 53.6584 28.16C53.9784 28.48 54.4718 28.64 55.1384 28.64C56.0451 28.64 57.0051 28.1867 58.0184 27.28C59.0584 26.3733 60.1518 24.7867 61.2984 22.52L61.6584 22.92C60.8851 25.2133 59.7651 26.9733 58.2984 28.2C56.8584 29.4267 55.3518 30.04 53.7784 30.04ZM58.5784 11.72C58.1518 11.72 57.7651 11.6133 57.4184 11.4C57.0984 11.1867 56.9384 10.8533 56.9384 10.4C56.9384 9.84 57.2584 9.36 57.8984 8.96C58.5651 8.53333 59.2184 8.32 59.8584 8.32C60.2584 8.32 60.5784 8.41333 60.8184 8.6C61.0584 8.78667 61.1784 9.10667 61.1784 9.56C61.1784 10.0667 60.8984 10.56 60.3384 11.04C59.8051 11.4933 59.2184 11.72 58.5784 11.72ZM64.7469 31.04C63.4935 31.04 62.4935 30.76 61.7469 30.2C61.0269 29.6667 60.5202 29 60.2269 28.2C59.9069 27.4 59.7469 26.6 59.7469 25.8C59.7469 25 59.8535 24.3867 60.0669 23.96C60.2802 23.5333 60.5335 23.2133 60.8269 23C61.1469 22.7867 61.4402 22.6267 61.7069 22.52C62.0002 22.4133 62.2002 22.3067 62.3069 22.2C63.1069 21.32 63.8402 20.4 64.5069 19.44C65.1735 18.48 65.7602 17.4667 66.2669 16.4V15.92C66.2669 14.9333 66.4269 14.24 66.7469 13.84C67.0935 13.4133 67.4535 13.2 67.8269 13.2C68.0402 13.2 68.2002 13.2533 68.3069 13.36C68.4135 13.4667 68.4669 13.5867 68.4669 13.72C68.4669 13.8533 68.4269 14.0667 68.3469 14.36C68.2669 14.6533 68.2269 15.0267 68.2269 15.48C68.2269 16.36 68.4002 17.32 68.7469 18.36C69.0935 19.3733 69.4402 20.4533 69.7869 21.6C70.1335 22.72 70.3069 23.8933 70.3069 25.12C70.3069 25.4667 70.2802 25.8133 70.2269 26.16C70.2002 26.48 70.1469 26.7867 70.0669 27.08C71.0002 26.92 71.8802 26.5067 72.7069 25.84C73.5335 25.1467 74.3335 24.0533 75.1069 22.56L75.4669 22.96C74.9602 24.4267 74.2002 25.5467 73.1869 26.32C72.1735 27.0667 71.0669 27.5333 69.8669 27.72C69.4402 28.8667 68.7602 29.7067 67.8269 30.24C66.9202 30.7733 65.8935 31.04 64.7469 31.04ZM64.8269 29.64C65.1469 29.64 65.5735 29.5333 66.1069 29.32C66.6402 29.1067 67.0535 28.56 67.3469 27.68C66.2269 27.4667 65.2269 27.0267 64.3469 26.36C63.4935 25.6933 62.8535 25.0267 62.4269 24.36C61.8402 24.3867 61.5469 24.8533 61.5469 25.76C61.5469 26.72 61.8269 27.6133 62.3869 28.44C62.9735 29.24 63.7869 29.64 64.8269 29.64ZM67.5469 27.04C67.6002 26.7733 67.6402 26.4933 67.6669 26.2C67.6935 25.9067 67.7069 25.56 67.7069 25.16C67.7069 23.9067 67.5469 22.6667 67.2269 21.44C66.9335 20.1867 66.6802 19.0133 66.4669 17.92C65.8535 18.9333 65.2002 19.9067 64.5069 20.84C63.8402 21.7467 63.2002 22.5067 62.5869 23.12C62.9869 23.9733 63.6002 24.7733 64.4269 25.52C65.2802 26.2667 66.3202 26.7733 67.5469 27.04ZM77.7359 30.84C76.5893 30.84 75.7093 30.5067 75.0959 29.84C74.4826 29.1733 74.1759 28.1867 74.1759 26.88C74.1759 25.7067 74.3893 24.2667 74.8159 22.56C75.2693 20.8267 75.8293 19.0533 76.4959 17.24C76.2293 17.1867 75.9759 17.1467 75.7359 17.12C75.4959 17.0667 75.2693 17 75.0559 16.92V16.2C75.2693 16.2267 75.5226 16.2533 75.8159 16.28C76.1093 16.3067 76.4426 16.3333 76.8159 16.36C77.3759 14.92 77.9759 13.5333 78.6159 12.2C79.2559 10.84 79.8826 9.64 80.4959 8.6C81.1359 7.53333 81.7359 6.69333 82.2959 6.08C82.8826 5.44 83.3759 5.12 83.7759 5.12C83.9893 5.12 84.1759 5.2 84.3359 5.36C84.5226 5.49333 84.6159 5.70667 84.6159 6C84.6159 6.45333 84.3359 7.2 83.7759 8.24C83.2159 9.25333 82.5226 10.4667 81.6959 11.88C80.8693 13.2933 80.0693 14.8267 79.2959 16.48C79.5359 16.48 79.7759 16.48 80.0159 16.48C80.2826 16.48 80.5359 16.48 80.7759 16.48C81.6559 16.48 82.5759 16.4667 83.5359 16.44C84.5226 16.4133 85.5093 16.3467 86.4959 16.24V16.96C85.0293 17.12 83.7093 17.24 82.5359 17.32C81.3893 17.4 80.3626 17.44 79.4559 17.44C79.3493 17.44 79.2426 17.44 79.1359 17.44C79.0559 17.44 78.9626 17.44 78.8559 17.44C78.2426 18.8533 77.7226 20.3067 77.2959 21.8C76.8693 23.2933 76.6559 24.7467 76.6559 26.16C76.6559 27.3067 76.8293 28.1333 77.1759 28.64C77.5226 29.12 78.0959 29.36 78.8959 29.36C80.2826 29.36 81.6426 28.7467 82.9759 27.52C84.3093 26.2933 85.4826 24.6267 86.4959 22.52L87.0159 22.92C86.3759 24.4133 85.5626 25.76 84.5759 26.96C83.6159 28.16 82.5493 29.1067 81.3759 29.8C80.2026 30.4933 78.9893 30.84 77.7359 30.84ZM87.6622 30.88C86.8355 30.88 86.1422 30.6 85.5822 30.04C84.9955 29.5067 84.7022 28.68 84.7022 27.56C84.7022 26.6 84.9155 25.5733 85.3422 24.48C85.7689 23.36 86.3555 22.2667 87.1022 21.2C87.8489 20.1067 88.6889 19.12 89.6222 18.24C90.5822 17.3333 91.5822 16.6133 92.6222 16.08C93.6889 15.5467 94.7422 15.28 95.7822 15.28C96.8222 15.28 97.6889 15.56 98.3822 16.12C99.0755 16.6533 99.4222 17.3733 99.4222 18.28C99.4222 18.9467 99.2355 19.4 98.8622 19.64C98.5155 19.88 98.0489 20 97.4622 20C97.5155 19.7867 97.5555 19.56 97.5822 19.32C97.6355 19.0533 97.6622 18.8133 97.6622 18.6C97.6622 17.9867 97.5155 17.4667 97.2222 17.04C96.9289 16.5867 96.4222 16.36 95.7022 16.36C94.9555 16.36 94.1955 16.6267 93.4222 17.16C92.6489 17.6667 91.9022 18.36 91.1822 19.24C90.4622 20.0933 89.8222 21.0267 89.2622 22.04C88.7022 23.0533 88.2622 24.0533 87.9422 25.04C87.6222 26.0267 87.4622 26.9067 87.4622 27.68C87.4622 28.72 87.8222 29.24 88.5422 29.24C89.1555 29.24 89.8222 28.96 90.5422 28.4C91.2622 27.8133 91.9955 27.08 92.7422 26.2C93.5155 25.2933 94.2489 24.36 94.9422 23.4C95.6355 22.44 96.2489 21.56 96.7822 20.76C96.8889 20.6 96.9555 20.52 96.9822 20.52C97.1422 20.5467 97.3422 20.6 97.5822 20.68C97.8489 20.76 98.0755 20.8667 98.2622 21C98.4489 21.1333 98.5422 21.3067 98.5422 21.52C98.5422 21.76 98.4222 22.0933 98.1822 22.52C97.9422 22.92 97.6755 23.3867 97.3822 23.92C97.0889 24.4533 96.8222 25 96.5822 25.56C96.3422 26.0933 96.2222 26.6 96.2222 27.08C96.2222 27.48 96.3289 27.88 96.5422 28.28C96.7555 28.6533 97.1022 28.84 97.5822 28.84C98.3022 28.84 99.2489 28.32 100.422 27.28C101.596 26.2133 102.782 24.6267 103.982 22.52L104.382 22.92C103.822 24.36 103.102 25.6267 102.222 26.72C101.342 27.8133 100.396 28.6667 99.3822 29.28C98.3955 29.8933 97.4222 30.2 96.4622 30.2C95.4755 30.2 94.7422 29.9067 94.2622 29.32C93.8089 28.7333 93.5822 28.0933 93.5822 27.4C93.5822 27.24 93.5955 27.0667 93.6222 26.88C93.6489 26.6667 93.6755 26.4533 93.7022 26.24C92.5555 27.7867 91.5022 28.9467 90.5422 29.72C89.6089 30.4933 88.6489 30.88 87.6622 30.88Z" fill="white"/>
</svg>
