<svg width="24" height="24" viewBox="0 0 24 24" fill="none" xmlns="http://www.w3.org/2000/svg">
<path d="M12.3 16.3C12.6866 16.6866 13.3134 16.6866 13.7 16.3C14.0866 15.9134 14.0866 15.2866 13.7 14.9L11.8 13L21 13C21.5523 13 22 12.5523 22 12C22 11.4477 21.5523 11 21 11L11.8 11L13.7 9.1C14.0866 8.7134 14.0866 8.0866 13.7 7.7C13.3134 7.3134 12.6866 7.3134 12.3 7.7L8.70711 11.2929C8.31658 11.6834 8.31658 12.3166 8.70711 12.7071L12.3 16.3ZM4 5H11C11.5523 5 12 4.55228 12 4C12 3.44772 11.5523 3 11 3H4C2.9 3 2 3.9 2 5L2 19C2 20.1 2.9 21 4 21H11C11.5523 21 12 20.5523 12 20C12 19.4477 11.5523 19 11 19H4L4 5Z" fill="white"/>
</svg>
