<svg width="24" height="24" viewBox="0 0 24 24" fill="none" xmlns="http://www.w3.org/2000/svg">
<g clip-path="url(#clip0_1109_10179)">
<path d="M19 4C19.7652 3.99996 20.5015 4.29233 21.0583 4.81728C21.615 5.34224 21.9501 6.06011 21.995 6.824L22 7V8.817C21.9977 9.08708 21.925 9.35189 21.7888 9.58518C21.6527 9.81847 21.458 10.0121 21.224 10.147L21.117 10.205C20.7935 10.3638 20.5189 10.6071 20.3222 10.9091C20.1256 11.2111 20.0142 11.5607 19.9998 11.9208C19.9855 12.2809 20.0687 12.6382 20.2407 12.9549C20.4127 13.2716 20.6671 13.536 20.977 13.72L21.117 13.795C21.55 14.009 21.937 14.451 21.993 15.035L22 15.183V17C22 17.7652 21.7077 18.5015 21.1827 19.0583C20.6578 19.615 19.9399 19.9501 19.176 19.995L19 20H5C4.23479 20 3.49849 19.7077 2.94174 19.1827C2.38499 18.6578 2.04989 17.9399 2.005 17.176L2 17V15.183C2 14.577 2.352 14.105 2.776 13.853L2.883 13.795C3.20653 13.6362 3.48114 13.3929 3.67779 13.0909C3.87445 12.7889 3.98583 12.4393 4.00017 12.0792C4.01452 11.7191 3.93129 11.3618 3.75928 11.0451C3.58727 10.7284 3.33288 10.464 3.023 10.28L2.883 10.205C2.45 9.991 2.063 9.549 2.007 8.965L2 8.818V7C1.99996 6.23479 2.29233 5.49849 2.81728 4.94174C3.34224 4.38499 4.06011 4.04989 4.824 4.005L5 4H19ZM19 6H5C4.75507 6.00003 4.51866 6.08996 4.33563 6.25272C4.15259 6.41547 4.03566 6.63975 4.007 6.883L4 7V8.535C4.59268 8.8766 5.08783 9.36453 5.43809 9.95214C5.78836 10.5397 5.98203 11.2074 6.00059 11.8912C6.01915 12.575 5.86198 13.2522 5.5441 13.8579C5.22623 14.4637 4.75828 14.9778 4.185 15.351L4 15.465V17C4.00003 17.2449 4.08996 17.4813 4.25272 17.6644C4.41547 17.8474 4.63975 17.9643 4.883 17.993L5 18H19C19.2449 18 19.4813 17.91 19.6644 17.7473C19.8474 17.5845 19.9643 17.3603 19.993 17.117L20 17V15.465C19.4073 15.1234 18.9122 14.6355 18.5619 14.0479C18.2116 13.4603 18.018 12.7926 17.9994 12.1088C17.9809 11.425 18.138 10.7478 18.4559 10.1421C18.7738 9.53632 19.2417 9.02225 19.815 8.649L20 8.535V7C20 6.75507 19.91 6.51866 19.7473 6.33563C19.5845 6.15259 19.3603 6.03566 19.117 6.007L19 6ZM10 9C10.2449 9.00003 10.4813 9.08996 10.6644 9.25272C10.8474 9.41547 10.9643 9.63975 10.993 9.883L11 10V14C10.9997 14.2549 10.9021 14.5 10.7272 14.6854C10.5522 14.8707 10.313 14.9822 10.0586 14.9972C9.80416 15.0121 9.55362 14.9293 9.35817 14.7657C9.16271 14.6021 9.0371 14.3701 9.007 14.117L9 14V10C9 9.73478 9.10536 9.48043 9.29289 9.29289C9.48043 9.10536 9.73478 9 10 9Z" fill="white"/>
</g>
<defs>
<clipPath id="clip0_1109_10179">
<rect width="24" height="24" fill="white"/>
</clipPath>
</defs>
</svg>
