<svg width="25" height="24" viewBox="0 0 25 24" fill="none" xmlns="http://www.w3.org/2000/svg">
<path d="M12.5 2.25C10.5716 2.25 8.68657 2.82183 7.08319 3.89317C5.47982 4.96452 4.23013 6.48726 3.49218 8.26884C2.75422 10.0504 2.56114 12.0108 2.93735 13.9021C3.31355 15.7934 4.24215 17.5307 5.60571 18.8943C6.96928 20.2579 8.70656 21.1865 10.5979 21.5627C12.4892 21.9389 14.4496 21.7458 16.2312 21.0078C18.0127 20.2699 19.5355 19.0202 20.6068 17.4168C21.6782 15.8134 22.25 13.9284 22.25 12C22.2473 9.41498 21.2192 6.93661 19.3913 5.10872C17.5634 3.28084 15.085 2.25273 12.5 2.25ZM12.5 20.25C10.8683 20.25 9.27326 19.7661 7.91655 18.8596C6.55984 17.9531 5.50242 16.6646 4.878 15.1571C4.25358 13.6496 4.0902 11.9908 4.40853 10.3905C4.72685 8.79016 5.51259 7.32015 6.66637 6.16637C7.82016 5.01259 9.29017 4.22685 10.8905 3.90852C12.4909 3.59019 14.1497 3.75357 15.6571 4.37799C17.1646 5.00242 18.4531 6.05984 19.3596 7.41655C20.2662 8.77325 20.75 10.3683 20.75 12C20.7475 14.1873 19.8775 16.2843 18.3309 17.8309C16.7843 19.3775 14.6873 20.2475 12.5 20.25ZM11 9V15C11 15.1989 10.921 15.3897 10.7803 15.5303C10.6397 15.671 10.4489 15.75 10.25 15.75C10.0511 15.75 9.86033 15.671 9.71967 15.5303C9.57902 15.3897 9.5 15.1989 9.5 15V9C9.5 8.80109 9.57902 8.61032 9.71967 8.46967C9.86033 8.32902 10.0511 8.25 10.25 8.25C10.4489 8.25 10.6397 8.32902 10.7803 8.46967C10.921 8.61032 11 8.80109 11 9ZM15.5 9V15C15.5 15.1989 15.421 15.3897 15.2803 15.5303C15.1397 15.671 14.9489 15.75 14.75 15.75C14.5511 15.75 14.3603 15.671 14.2197 15.5303C14.079 15.3897 14 15.1989 14 15V9C14 8.80109 14.079 8.61032 14.2197 8.46967C14.3603 8.32902 14.5511 8.25 14.75 8.25C14.9489 8.25 15.1397 8.32902 15.2803 8.46967C15.421 8.61032 15.5 8.80109 15.5 9Z" fill="#667085"/>
</svg>
