<svg width="25" height="24" viewBox="0 0 25 24" fill="none" xmlns="http://www.w3.org/2000/svg">
<path d="M10 15.5832V8.41518C10.0001 8.3255 10.0244 8.23751 10.0703 8.16043C10.1161 8.08334 10.1818 8.02001 10.2606 7.97707C10.3393 7.93412 10.4281 7.91314 10.5178 7.91633C10.6074 7.91952 10.6945 7.94675 10.77 7.99518L16.346 11.5782C16.4166 11.6234 16.4747 11.6857 16.5149 11.7593C16.5552 11.8328 16.5763 11.9153 16.5763 11.9992C16.5763 12.083 16.5552 12.1655 16.5149 12.2391C16.4747 12.3127 16.4166 12.3749 16.346 12.4202L10.77 16.0042C10.6945 16.0526 10.6074 16.0798 10.5178 16.083C10.4281 16.0862 10.3393 16.0652 10.2606 16.0223C10.1818 15.9794 10.1161 15.916 10.0703 15.8389C10.0244 15.7619 10.0001 15.6739 10 15.5842V15.5832Z" fill="#667085"/>
<path d="M1.5 12C1.5 5.925 6.425 1 12.5 1C18.575 1 23.5 5.925 23.5 12C23.5 18.075 18.575 23 12.5 23C6.425 23 1.5 18.075 1.5 12ZM12.5 2.5C9.98044 2.5 7.56408 3.50089 5.78249 5.28249C4.00089 7.06408 3 9.48044 3 12C3 14.5196 4.00089 16.9359 5.78249 18.7175C7.56408 20.4991 9.98044 21.5 12.5 21.5C15.0196 21.5 17.4359 20.4991 19.2175 18.7175C20.9991 16.9359 22 14.5196 22 12C22 9.48044 20.9991 7.06408 19.2175 5.28249C17.4359 3.50089 15.0196 2.5 12.5 2.5Z" fill="#667085"/>
</svg>
