<svg width="22" height="22" viewBox="0 0 22 22" fill="none" xmlns="http://www.w3.org/2000/svg">
<path d="M20.4453 8.37969C20.1153 8.03563 19.775 7.68031 19.6634 7.41125C19.5641 7.17125 19.5566 6.67719 19.55 6.24219C19.5359 5.30469 19.5181 4.13844 18.6894 3.31063C17.8606 2.48281 16.6953 2.46687 15.7578 2.45C15.3228 2.44344 14.8287 2.43594 14.5887 2.33656C14.3197 2.225 13.9644 1.88469 13.6203 1.55469C12.9566 0.918125 12.1297 0.125 11 0.125C9.87031 0.125 9.04344 0.918125 8.37969 1.55469C8.03563 1.88469 7.68031 2.225 7.41125 2.33656C7.17125 2.43594 6.67719 2.44344 6.24219 2.45C5.30469 2.46875 4.13844 2.48187 3.3125 3.3125C2.48656 4.14313 2.46875 5.30469 2.45 6.24219C2.44344 6.67719 2.43594 7.17125 2.33656 7.41125C2.225 7.68031 1.88469 8.03563 1.55469 8.37969C0.918125 9.04344 0.125 9.875 0.125 11C0.125 12.125 0.918125 12.9566 1.55469 13.625C1.88469 13.9691 2.225 14.3244 2.33656 14.5934C2.43594 14.8334 2.44344 15.3275 2.45 15.7625C2.46406 16.7 2.48187 17.8663 3.31063 18.6941C4.13937 19.5219 5.30469 19.5378 6.24219 19.5547C6.67719 19.5613 7.17125 19.5688 7.41125 19.6681C7.68031 19.7797 8.03563 20.12 8.37969 20.45C9.04344 21.0819 9.875 21.875 11 21.875C12.125 21.875 12.9566 21.0819 13.6203 20.4453C13.9644 20.1153 14.3197 19.775 14.5887 19.6634C14.8287 19.5641 15.3228 19.5566 15.7578 19.55C16.6953 19.5359 17.8616 19.5181 18.6894 18.6894C19.5172 17.8606 19.5331 16.6953 19.55 15.7578C19.5566 15.3228 19.5641 14.8287 19.6634 14.5887C19.775 14.3197 20.1153 13.9644 20.4453 13.6203C21.0819 12.9566 21.875 12.1297 21.875 11C21.875 9.87031 21.0819 9.04344 20.4453 8.37969ZM18.8216 12.0631C18.3697 12.5319 17.8578 13.0681 17.585 13.7281C17.3206 14.3656 17.3103 15.0556 17.3038 15.7241C17.2963 16.2266 17.2859 16.9156 17.1022 17.0984C16.9184 17.2812 16.2303 17.2925 15.7278 17.3C15.0594 17.3103 14.3694 17.3206 13.7319 17.5812C13.0756 17.8541 12.5384 18.3659 12.0669 18.8178C11.7294 19.1413 11.225 19.625 11 19.625C10.775 19.625 10.2706 19.1412 9.93688 18.8216C9.46813 18.3697 8.93188 17.8578 8.27188 17.585C7.63438 17.3206 6.94438 17.3103 6.27594 17.3038C5.77344 17.2963 5.08437 17.2859 4.90156 17.1022C4.71875 16.9184 4.7075 16.2303 4.7 15.7278C4.68969 15.0594 4.67937 14.3694 4.41875 13.7319C4.14594 13.0756 3.63406 12.5384 3.18219 12.0669C2.85875 11.7294 2.375 11.225 2.375 11C2.375 10.775 2.85875 10.2706 3.17844 9.93688C3.63031 9.46813 4.14219 8.93188 4.415 8.27188C4.67937 7.63438 4.68969 6.94438 4.69625 6.27594C4.7075 5.77344 4.71875 5.08437 4.90625 4.90625C5.09375 4.72813 5.77813 4.71219 6.28063 4.70469C6.94906 4.69438 7.63906 4.68406 8.27656 4.42344C8.93281 4.15062 9.47 3.63875 9.94156 3.18687C10.2706 2.85875 10.775 2.375 11 2.375C11.225 2.375 11.7294 2.85875 12.0631 3.17844C12.5319 3.63031 13.0681 4.14219 13.7281 4.415C14.3656 4.67937 15.0556 4.68969 15.7241 4.69625C16.2266 4.70375 16.9156 4.71406 17.0984 4.89781C17.2812 5.08156 17.2925 5.76969 17.3 6.27219C17.3103 6.94063 17.3206 7.63063 17.5812 8.26813C17.8541 8.92438 18.3659 9.46156 18.8178 9.93313C19.1375 10.2669 19.6213 10.7712 19.6213 10.9963C19.6213 11.2212 19.1412 11.7294 18.8216 12.0631ZM12.5 15.875C12.5 16.1717 12.412 16.4617 12.2472 16.7084C12.0824 16.955 11.8481 17.1473 11.574 17.2608C11.2999 17.3744 10.9983 17.4041 10.7074 17.3462C10.4164 17.2883 10.1491 17.1454 9.93934 16.9357C9.72956 16.7259 9.5867 16.4586 9.52882 16.1676C9.47094 15.8767 9.50065 15.5751 9.61418 15.301C9.72771 15.0269 9.91997 14.7926 10.1666 14.6278C10.4133 14.463 10.7033 14.375 11 14.375C11.3978 14.375 11.7794 14.533 12.0607 14.8143C12.342 15.0956 12.5 15.4772 12.5 15.875ZM15.125 9.125C15.125 10.8472 13.8416 12.3012 12.0997 12.74C12.0411 13.0117 11.8839 13.2521 11.6586 13.4148C11.4333 13.5775 11.1557 13.651 10.8793 13.6212C10.603 13.5914 10.3475 13.4604 10.162 13.2533C9.97657 13.0463 9.87433 12.7779 9.875 12.5V11.75C9.875 11.4516 9.99353 11.1655 10.2045 10.9545C10.4155 10.7435 10.7016 10.625 11 10.625C12.0312 10.625 12.875 9.95187 12.875 9.125C12.875 8.29813 12.0312 7.625 11 7.625C9.96875 7.625 9.125 8.29813 9.125 9.125V9.5C9.125 9.79837 9.00647 10.0845 8.7955 10.2955C8.58452 10.5065 8.29837 10.625 8 10.625C7.70163 10.625 7.41548 10.5065 7.2045 10.2955C6.99353 10.0845 6.875 9.79837 6.875 9.5V9.125C6.875 7.05688 8.72563 5.375 11 5.375C13.2744 5.375 15.125 7.05688 15.125 9.125Z" fill="white"/>
</svg>
