<svg width="51" height="50" viewBox="0 0 51 50" fill="none" xmlns="http://www.w3.org/2000/svg">
<circle cx="25.9" cy="25" r="24.5" stroke="#3B5F90"/>
<path d="M30.483 17H20.483C19.5511 17 19.0851 17 18.7176 17.1522C18.2275 17.3552 17.8382 17.7446 17.6352 18.2346C17.483 18.6022 17.483 19.0681 17.483 20C17.483 20.9319 17.483 21.3978 17.6352 21.7654C17.8382 22.2554 18.2275 22.6448 18.7176 22.8478C19.0851 23 19.5511 23 20.483 23H30.483C31.4149 23 31.8808 23 32.2483 22.8478C32.7384 22.6448 33.1277 22.2554 33.3307 21.7654C33.483 21.3978 33.483 20.9319 33.483 20C33.483 19.0681 33.483 18.6022 33.3307 18.2346C33.1277 17.7446 32.7384 17.3552 32.2483 17.1522C31.8808 17 31.4149 17 30.483 17Z" stroke="#3B5F90" stroke-width="1.5" stroke-linecap="round" stroke-linejoin="round"/>
<path d="M30.483 27H20.483C19.5511 27 19.0851 27 18.7176 27.1522C18.2275 27.3552 17.8382 27.7446 17.6352 28.2346C17.483 28.6022 17.483 29.0681 17.483 30C17.483 30.9319 17.483 31.3978 17.6352 31.7654C17.8382 32.2554 18.2275 32.6448 18.7176 32.8478C19.0851 33 19.5511 33 20.483 33H30.483C31.4149 33 31.8808 33 32.2483 32.8478C32.7384 32.6448 33.1277 32.2554 33.3307 31.7654C33.483 31.3978 33.483 30.9319 33.483 30C33.483 29.0681 33.483 28.6022 33.3307 28.2346C33.1277 27.7446 32.7384 27.3552 32.2483 27.1522C31.8808 27 31.4149 27 30.483 27Z" stroke="#3B5F90" stroke-width="1.5" stroke-linecap="round" stroke-linejoin="round"/>
<path d="M28.483 20H30.483" stroke="#3B5F90" stroke-width="1.5" stroke-linecap="round"/>
<path d="M28.483 30H30.483" stroke="#3B5F90" stroke-width="1.5" stroke-linecap="round"/>
<path d="M22.483 23L22.483 27" stroke="#3B5F90" stroke-width="1.5" stroke-linecap="round"/>
<path d="M28.483 23L28.483 27" stroke="#3B5F90" stroke-width="1.5" stroke-linecap="round"/>
</svg>
