<svg width="36" height="36" viewBox="0 0 36 36" fill="none" xmlns="http://www.w3.org/2000/svg">
<rect x="0.5" y="0.5" width="35" height="35" rx="15" fill="#3B5F90"/>
<path d="M14.3408 21.6764L17.6741 25.0097M17.6741 25.0097L21.0075 21.6764M17.6741 25.0097V17.5097M25.0741 22.5847C25.7986 22.0752 26.3419 21.3482 26.6252 20.509C26.9085 19.6698 26.917 18.7622 26.6495 17.9179C26.382 17.0736 25.8524 16.3365 25.1375 15.8135C24.4227 15.2906 23.5598 15.009 22.6741 15.0097H21.6241C21.3735 14.0329 20.9045 13.1257 20.2526 12.3564C19.6006 11.5871 18.7826 10.9758 17.8601 10.5683C16.9377 10.1609 15.9348 9.96807 14.9271 10.0043C13.9193 10.0405 12.9329 10.3049 12.0421 10.7776C11.1513 11.2502 10.3793 11.9188 9.78429 12.7329C9.18926 13.5471 8.78668 14.4856 8.60686 15.4778C8.42703 16.4701 8.47465 17.4902 8.74612 18.4614C9.0176 19.4326 9.50585 20.3295 10.1741 21.0847" stroke="white" stroke-width="1.66667" stroke-linecap="round" stroke-linejoin="round"/>
</svg>
