<svg width="24" height="24" viewBox="0 0 24 24" fill="none" xmlns="http://www.w3.org/2000/svg">
<path d="M10.3223 5.75427C10.5249 3.45662 13.776 3.3967 13.898 5.68836C13.9675 6.99415 15.2898 7.76859 16.4394 7.17678C18.4568 6.13815 20.0312 9.02423 18.1709 10.351C17.111 11.107 17.0829 12.7051 18.1171 13.4225C19.932 14.6815 18.2552 17.6275 16.273 16.6626C15.1434 16.1128 13.7931 16.9365 13.6777 18.2457C13.4751 20.5434 10.224 20.6033 10.102 18.3116C10.0325 17.0059 8.71017 16.2314 7.56062 16.8232C5.54318 17.8619 3.96879 14.9758 5.82906 13.649C6.88905 12.893 6.91709 11.2949 5.88295 10.5775C4.06805 9.31848 5.74476 6.37247 7.72705 7.33737C8.85656 7.88718 10.2069 7.06347 10.3223 5.75427Z" stroke="white" stroke-width="1.5"/>
<path d="M12 10C13.1046 10 14 10.8954 14 12V12C14 13.1046 13.1046 14 12 14V14C10.8954 14 10 13.1046 10 12V12C10 10.8954 10.8954 10 12 10V10Z" stroke="white" stroke-width="1.5"/>
</svg>
