<svg width="24" height="24" viewBox="0 0 24 24" fill="none" xmlns="http://www.w3.org/2000/svg">
<path d="M15.7152 6C17.3994 6 18.2415 6 18.7847 6.42543C19.0181 6.60826 19.208 6.84069 19.3405 7.10592C19.649 7.72312 19.4809 8.54828 19.1447 10.1986L18.7373 12.1986C18.5044 13.3422 18.3879 13.9139 18.0437 14.3107C17.8937 14.4836 17.7151 14.6294 17.5158 14.7419C17.0583 15 16.4748 15 15.3078 15L11.8076 15C10.66 15 10.0861 15 9.63315 14.7484C9.43567 14.6387 9.25821 14.4963 9.1083 14.3273C8.76438 13.9397 8.6399 13.3796 8.39095 12.2593L7.9465 10.2593C7.57521 8.58845 7.38957 7.75305 7.69441 7.12578C7.82533 6.85642 8.01506 6.61989 8.24962 6.43366C8.79581 6 9.65159 6 11.3632 6L13.5 6L15.7152 6Z" stroke="white" stroke-width="1.5"/>
<path d="M10 19C10 18.4477 10.4477 18 11 18V18C11.5523 18 12 18.4477 12 19V19C12 19.5523 11.5523 20 11 20V20C10.4477 20 10 19.5523 10 19V19Z" stroke="white" stroke-width="1.5"/>
<path d="M16 19C16 18.4477 16.4477 18 17 18V18C17.5523 18 18 18.4477 18 19V19C18 19.5523 17.5523 20 17 20V20C16.4477 20 16 19.5523 16 19V19Z" stroke="white" stroke-width="1.5"/>
<path d="M8 10.5L7.05341 6.24035C7.01794 6.08072 6.96302 5.92604 6.88989 5.77978L6.82918 5.65836C6.321 4.64201 5.28221 4 4.1459 4H4" stroke="white" stroke-width="1.5" stroke-linecap="round"/>
<path d="M12 9V12" stroke="white" stroke-width="1.5" stroke-linecap="round"/>
<path d="M16 9V12" stroke="white" stroke-width="1.5" stroke-linecap="round"/>
</svg>
