<svg width="51" height="50" viewBox="0 0 51 50" fill="none" xmlns="http://www.w3.org/2000/svg">
<circle cx="25.1" cy="25" r="24.5" stroke="#3B5F90"/>
<path d="M25.5344 23C26.4826 23 26.9567 23 27.3967 22.7663C27.6599 22.6265 27.9901 22.3202 28.1493 22.0683C28.4154 21.6471 28.4421 21.2932 28.4954 20.5856C28.5246 20.1976 28.5236 19.8159 28.4916 19.4211C28.434 18.708 28.4052 18.3515 28.1454 17.9373C27.9818 17.6764 27.647 17.3676 27.3738 17.2256C26.94 17 26.4698 17 25.5294 17V17C24.5528 17 24.0644 17 23.6247 17.2334C23.3442 17.3822 23.0135 17.6954 22.8495 17.9673C22.5925 18.3937 22.5716 18.7757 22.5298 19.5398C22.5128 19.849 22.5122 20.1512 22.5274 20.4559C22.5658 21.2228 22.585 21.6063 22.8485 22.0394C23.0087 22.3028 23.3334 22.6117 23.6045 22.7585C24.0502 23 24.5449 23 25.5344 23V23Z" stroke="#3B5F90" stroke-width="1.5"/>
<path d="M32.0165 32.5L32.0994 31.6152C32.2432 30.082 32.3151 29.3154 31.7419 28.2504C31.5621 27.9164 31.0457 27.2901 30.7521 27.0499C29.8159 26.2842 29.2763 26.231 28.197 26.1245C27.4214 26.048 26.5306 26 25.5165 26C24.5023 26 23.6116 26.048 22.8359 26.1245C21.7567 26.231 21.2171 26.2842 20.2809 27.0499C19.9873 27.2901 19.4709 27.9164 19.2911 28.2504C18.7179 29.3154 18.7898 30.082 18.9335 31.6152L19.0165 32.5" stroke="#3B5F90" stroke-width="1.5" stroke-linecap="round"/>
</svg>
