<svg width="156" height="50" viewBox="0 0 156 50" fill="none" xmlns="http://www.w3.org/2000/svg">
<path d="M4.22 49.22C3.22 49.22 2.28 48.94 1.4 48.38C0.52 47.82 0.0800001 47.1 0.0800001 46.22C0.0800001 45.78 0.18 45.24 0.38 44.6C0.58 44 0.76 43.44 0.92 42.92C2.2 39 3.4 35.34 4.52 31.94C5.64 28.54 6.76 25.24 7.88 22.04C9 18.84 10.18 15.64 11.42 12.44C12.7 9.24 14.12 5.9 15.68 2.42C14.16 2.7 12.8 3.12 11.6 3.68C10.44 4.2 9.5 4.68 8.78 5.12C8.06 5.52 7.58 5.72 7.34 5.72C7.18 5.72 6.94 5.64 6.62 5.48C6.34 5.28 6.08 5.06 5.84 4.82C5.6 4.54 5.48 4.3 5.48 4.1C6.52 3.66 7.74 3.18 9.14 2.66C10.58 2.14 12.12 1.7 13.76 1.34C15.4 0.979998 17.06 0.799998 18.74 0.799998C20.5 0.799998 22.28 1.04 24.08 1.52C25.92 2 27.6 2.74 29.12 3.74C30.64 4.7 31.86 5.9 32.78 7.34C33.7 8.78 34.16 10.46 34.16 12.38C34.16 14.46 33.7 16.26 32.78 17.78C31.86 19.26 30.64 20.52 29.12 21.56C27.6 22.56 25.96 23.38 24.2 24.02C22.44 24.62 20.68 25.1 18.92 25.46C17.2 25.78 15.66 26 14.3 26.12C12.94 26.2 11.94 26.24 11.3 26.24H10.7C9.5 30.36 8.34 34.42 7.22 38.42C6.14 42.42 5.14 46.02 4.22 49.22ZM10.94 25.28C13.14 25.16 15.36 24.8 17.6 24.2C19.88 23.6 21.96 22.74 23.84 21.62C25.72 20.46 27.24 19.04 28.4 17.36C29.56 15.64 30.14 13.64 30.14 11.36C30.14 9.2 29.62 7.44 28.58 6.08C27.58 4.72 26.24 3.72 24.56 3.08C22.92 2.4 21.16 2.06 19.28 2.06C17.8 4.98 16.36 8.48 14.96 12.56C13.56 16.64 12.22 20.88 10.94 25.28ZM33.898 46.64C31.458 46.64 29.618 45.96 28.378 44.6C27.178 43.28 26.578 41.64 26.578 39.68C26.578 37.88 27.018 35.98 27.898 33.98C28.818 31.98 30.018 30.1 31.498 28.34C33.018 26.58 34.678 25.16 36.478 24.08C38.278 22.96 40.058 22.4 41.818 22.4C42.738 22.4 43.578 22.64 44.338 23.12C45.138 23.6 45.538 24.58 45.538 26.06C45.538 27.58 45.078 29.02 44.158 30.38C43.278 31.7 42.098 32.88 40.618 33.92C39.178 34.96 37.578 35.82 35.818 36.5C34.098 37.14 32.378 37.54 30.658 37.7C30.578 38.1 30.518 38.48 30.478 38.84C30.438 39.2 30.418 39.54 30.418 39.86C30.418 40.46 30.478 41.06 30.598 41.66C30.758 42.26 31.018 42.82 31.378 43.34C31.738 43.82 32.218 44.2 32.818 44.48C33.458 44.76 34.238 44.9 35.158 44.9C36.878 44.9 38.578 44.42 40.258 43.46C41.938 42.46 43.498 41.16 44.938 39.56C46.378 37.96 47.598 36.2 48.598 34.28L49.318 34.82C48.238 37.22 46.858 39.3 45.178 41.06C43.538 42.82 41.738 44.18 39.778 45.14C37.858 46.14 35.898 46.64 33.898 46.64ZM30.958 36.56C32.038 36.2 33.258 35.68 34.618 35C35.978 34.28 37.278 33.44 38.518 32.48C39.798 31.52 40.838 30.46 41.638 29.3C42.478 28.14 42.898 26.92 42.898 25.64C42.898 25.2 42.818 24.86 42.658 24.62C42.498 24.38 42.158 24.26 41.638 24.26C40.678 24.26 39.658 24.64 38.578 25.4C37.498 26.12 36.458 27.08 35.458 28.28C34.458 29.48 33.558 30.8 32.758 32.24C31.958 33.68 31.358 35.12 30.958 36.56ZM66.7784 45.2C65.3784 45.2 64.3184 44.84 63.5984 44.12C62.9184 43.4 62.5784 42.48 62.5784 41.36C62.5784 40.52 62.7184 39.64 62.9984 38.72C63.3184 37.8 63.6184 36.86 63.8984 35.9C64.1784 34.9 64.3184 33.94 64.3184 33.02C64.3184 31.9 64.0784 31.14 63.5984 30.74C63.1584 30.3 62.5984 30.08 61.9184 30.08C60.6784 30.08 59.4184 30.6 58.1384 31.64C56.8584 32.64 55.6184 33.94 54.4184 35.54C53.2184 37.1 52.0984 38.72 51.0584 40.4C50.0184 42.08 49.0984 43.58 48.2984 44.9C47.6584 44.9 47.0584 44.78 46.4984 44.54C45.8984 44.34 45.4384 44.02 45.1184 43.58C45.1184 43.38 45.3384 42.76 45.7784 41.72C46.1784 40.68 46.6584 39.4 47.2184 37.88C47.7784 36.36 48.2784 34.8 48.7184 33.2C49.1584 31.6 49.3784 30.14 49.3784 28.82C49.6184 28.54 49.9984 28.26 50.5184 27.98C51.0384 27.7 51.5784 27.56 52.1384 27.56C53.2184 27.56 53.7584 28.08 53.7584 29.12C53.7584 29.76 53.5784 30.84 53.2184 32.36C52.8584 33.84 52.3984 35.4 51.8384 37.04C52.9184 35.4 54.1184 33.78 55.4384 32.18C56.7984 30.54 58.2384 29.18 59.7584 28.1C61.2784 27.02 62.7984 26.48 64.3184 26.48C65.8784 26.48 66.9984 27.04 67.6784 28.16C68.3984 29.28 68.7584 30.52 68.7584 31.88C68.7584 33.12 68.5584 34.28 68.1584 35.36C67.7584 36.4 67.3384 37.42 66.8984 38.42C66.4984 39.38 66.2984 40.36 66.2984 41.36C66.2984 42.2 66.4584 42.8 66.7784 43.16C67.1384 43.48 67.5784 43.64 68.0984 43.64C69.0984 43.64 70.0984 43.18 71.0984 42.26C72.0984 41.3 73.0584 40.1 73.9784 38.66C74.9384 37.22 75.7784 35.76 76.4984 34.28L77.1584 35.06C76.3184 37.02 75.3784 38.76 74.3384 40.28C73.2984 41.8 72.1584 43 70.9184 43.88C69.6784 44.76 68.2984 45.2 66.7784 45.2ZM68.6384 22.64C67.5584 22.64 66.4384 22.42 65.2784 21.98C64.1184 21.5 62.9384 21.04 61.7384 20.6C60.5784 20.12 59.3784 19.88 58.1384 19.88C57.6184 19.88 57.0784 19.96 56.5184 20.12C55.9584 20.24 55.4184 20.46 54.8984 20.78C55.6984 19.66 56.5384 18.88 57.4184 18.44C58.2984 18 59.1984 17.78 60.1184 17.78C61.2384 17.78 62.3984 18.02 63.5984 18.5C64.7984 18.98 66.0584 19.46 67.3784 19.94C68.6984 20.42 70.0784 20.66 71.5184 20.66C72.1584 20.66 72.8384 20.5 73.5584 20.18C72.7984 21.1 71.9984 21.74 71.1584 22.1C70.3584 22.46 69.5184 22.64 68.6384 22.64ZM79.6677 45.56C78.1077 45.56 76.9477 45.06 76.1877 44.06C75.4277 43.1 75.0477 41.92 75.0477 40.52C75.0477 39.6 75.2077 38.44 75.5277 37.04C75.8877 35.64 76.3477 34.18 76.9077 32.66C77.4677 31.1 78.1077 29.64 78.8277 28.28C79.5877 26.92 80.3877 25.82 81.2277 24.98C82.0677 24.1 82.8877 23.66 83.6877 23.66C84.0477 23.66 84.3477 23.78 84.5877 24.02C84.8677 24.22 85.0077 24.54 85.0077 24.98C85.0077 25.46 84.6877 26.24 84.0477 27.32C83.4477 28.4 82.7277 29.64 81.8877 31.04C81.0477 32.44 80.3077 33.92 79.6677 35.48C79.0677 37 78.7677 38.46 78.7677 39.86C78.7677 41.3 79.0077 42.26 79.4877 42.74C79.9677 43.22 80.7077 43.46 81.7077 43.46C83.0677 43.46 84.5077 42.78 86.0277 41.42C87.5877 40.06 89.2277 37.68 90.9477 34.28L91.4877 34.88C90.3277 38.32 88.6477 40.96 86.4477 42.8C84.2877 44.64 82.0277 45.56 79.6677 45.56ZM86.8677 18.08C86.2277 18.08 85.6477 17.92 85.1277 17.6C84.6477 17.28 84.4077 16.78 84.4077 16.1C84.4077 15.26 84.8877 14.54 85.8477 13.94C86.8477 13.3 87.8277 12.98 88.7877 12.98C89.3877 12.98 89.8677 13.12 90.2277 13.4C90.5877 13.68 90.7677 14.16 90.7677 14.84C90.7677 15.6 90.3477 16.34 89.5077 17.06C88.7077 17.74 87.8277 18.08 86.8677 18.08ZM96.1203 47.06C94.2403 47.06 92.7403 46.64 91.6203 45.8C90.5403 45 89.7803 44 89.3403 42.8C88.8603 41.6 88.6203 40.4 88.6203 39.2C88.6203 38 88.7803 37.08 89.1003 36.44C89.4203 35.8 89.8003 35.32 90.2403 35C90.7203 34.68 91.1603 34.44 91.5603 34.28C92.0003 34.12 92.3003 33.96 92.4603 33.8C93.6603 32.48 94.7603 31.1 95.7603 29.66C96.7603 28.22 97.6403 26.7 98.4003 25.1V24.38C98.4003 22.9 98.6403 21.86 99.1203 21.26C99.6403 20.62 100.18 20.3 100.74 20.3C101.06 20.3 101.3 20.38 101.46 20.54C101.62 20.7 101.7 20.88 101.7 21.08C101.7 21.28 101.64 21.6 101.52 22.04C101.4 22.48 101.34 23.04 101.34 23.72C101.34 25.04 101.6 26.48 102.12 28.04C102.64 29.56 103.16 31.18 103.68 32.9C104.2 34.58 104.46 36.34 104.46 38.18C104.46 38.7 104.42 39.22 104.34 39.74C104.3 40.22 104.22 40.68 104.1 41.12C105.5 40.88 106.82 40.26 108.06 39.26C109.3 38.22 110.5 36.58 111.66 34.34L112.2 34.94C111.44 37.14 110.3 38.82 108.78 39.98C107.26 41.1 105.6 41.8 103.8 42.08C103.16 43.8 102.14 45.06 100.74 45.86C99.3803 46.66 97.8403 47.06 96.1203 47.06ZM96.2403 44.96C96.7203 44.96 97.3603 44.8 98.1603 44.48C98.9603 44.16 99.5803 43.34 100.02 42.02C98.3403 41.7 96.8403 41.04 95.5203 40.04C94.2403 39.04 93.2803 38.04 92.6403 37.04C91.7603 37.08 91.3203 37.78 91.3203 39.14C91.3203 40.58 91.7403 41.92 92.5803 43.16C93.4603 44.36 94.6803 44.96 96.2403 44.96ZM100.32 41.06C100.4 40.66 100.46 40.24 100.5 39.8C100.54 39.36 100.56 38.84 100.56 38.24C100.56 36.36 100.32 34.5 99.8403 32.66C99.4003 30.78 99.0203 29.02 98.7003 27.38C97.7803 28.9 96.8003 30.36 95.7603 31.76C94.7603 33.12 93.8003 34.26 92.8803 35.18C93.4803 36.46 94.4003 37.66 95.6403 38.78C96.9203 39.9 98.4803 40.66 100.32 41.06ZM115.604 46.76C113.884 46.76 112.564 46.26 111.644 45.26C110.724 44.26 110.264 42.78 110.264 40.82C110.264 39.06 110.584 36.9 111.224 34.34C111.904 31.74 112.744 29.08 113.744 26.36C113.344 26.28 112.964 26.22 112.604 26.18C112.244 26.1 111.904 26 111.584 25.88V24.8C111.904 24.84 112.284 24.88 112.724 24.92C113.164 24.96 113.664 25 114.224 25.04C115.064 22.88 115.964 20.8 116.924 18.8C117.884 16.76 118.824 14.96 119.744 13.4C120.704 11.8 121.604 10.54 122.444 9.62C123.324 8.66 124.064 8.18 124.664 8.18C124.984 8.18 125.264 8.3 125.504 8.54C125.784 8.74 125.924 9.06 125.924 9.5C125.924 10.18 125.504 11.3 124.664 12.86C123.824 14.38 122.784 16.2 121.544 18.32C120.304 20.44 119.104 22.74 117.944 25.22C118.304 25.22 118.664 25.22 119.024 25.22C119.424 25.22 119.804 25.22 120.164 25.22C121.484 25.22 122.864 25.2 124.304 25.16C125.784 25.12 127.264 25.02 128.744 24.86V25.94C126.544 26.18 124.564 26.36 122.804 26.48C121.084 26.6 119.544 26.66 118.184 26.66C118.024 26.66 117.864 26.66 117.704 26.66C117.584 26.66 117.444 26.66 117.284 26.66C116.364 28.78 115.584 30.96 114.944 33.2C114.304 35.44 113.984 37.62 113.984 39.74C113.984 41.46 114.244 42.7 114.764 43.46C115.284 44.18 116.144 44.54 117.344 44.54C119.424 44.54 121.464 43.62 123.464 41.78C125.464 39.94 127.224 37.44 128.744 34.28L129.524 34.88C128.564 37.12 127.344 39.14 125.864 40.94C124.424 42.74 122.824 44.16 121.064 45.2C119.304 46.24 117.484 46.76 115.604 46.76ZM130.493 46.82C129.253 46.82 128.213 46.4 127.373 45.56C126.493 44.76 126.053 43.52 126.053 41.84C126.053 40.4 126.373 38.86 127.013 37.22C127.653 35.54 128.533 33.9 129.653 32.3C130.773 30.66 132.033 29.18 133.433 27.86C134.873 26.5 136.373 25.42 137.933 24.62C139.533 23.82 141.113 23.42 142.673 23.42C144.233 23.42 145.533 23.84 146.573 24.68C147.613 25.48 148.133 26.56 148.133 27.92C148.133 28.92 147.853 29.6 147.293 29.96C146.773 30.32 146.073 30.5 145.193 30.5C145.273 30.18 145.333 29.84 145.373 29.48C145.453 29.08 145.493 28.72 145.493 28.4C145.493 27.48 145.273 26.7 144.833 26.06C144.393 25.38 143.633 25.04 142.553 25.04C141.433 25.04 140.293 25.44 139.133 26.24C137.973 27 136.853 28.04 135.773 29.36C134.693 30.64 133.733 32.04 132.893 33.56C132.053 35.08 131.393 36.58 130.913 38.06C130.433 39.54 130.193 40.86 130.193 42.02C130.193 43.58 130.733 44.36 131.813 44.36C132.733 44.36 133.733 43.94 134.813 43.1C135.893 42.22 136.993 41.12 138.113 39.8C139.273 38.44 140.373 37.04 141.413 35.6C142.453 34.16 143.373 32.84 144.173 31.64C144.333 31.4 144.433 31.28 144.473 31.28C144.713 31.32 145.013 31.4 145.373 31.52C145.773 31.64 146.113 31.8 146.393 32C146.673 32.2 146.813 32.46 146.813 32.78C146.813 33.14 146.633 33.64 146.273 34.28C145.913 34.88 145.513 35.58 145.073 36.38C144.633 37.18 144.233 38 143.873 38.84C143.513 39.64 143.333 40.4 143.333 41.12C143.333 41.72 143.493 42.32 143.813 42.92C144.133 43.48 144.653 43.76 145.373 43.76C146.453 43.76 147.873 42.98 149.633 41.42C151.393 39.82 153.173 37.44 154.973 34.28L155.573 34.88C154.733 37.04 153.653 38.94 152.333 40.58C151.013 42.22 149.593 43.5 148.073 44.42C146.593 45.34 145.133 45.8 143.693 45.8C142.213 45.8 141.113 45.36 140.393 44.48C139.713 43.6 139.373 42.64 139.373 41.6C139.373 41.36 139.393 41.1 139.433 40.82C139.473 40.5 139.513 40.18 139.553 39.86C137.833 42.18 136.253 43.92 134.813 45.08C133.413 46.24 131.973 46.82 130.493 46.82Z" fill="#3B5F90"/>
</svg>
