<svg width="10" height="16" viewBox="0 0 10 16" fill="none" xmlns="http://www.w3.org/2000/svg">
<path d="M0.999502 14.7269C0.78727 14.5146 0.668045 14.2267 0.668045 13.9265C0.668045 13.6263 0.78727 13.3384 0.999502 13.1261L6.60328 7.52237L0.999502 1.91859C0.793285 1.70508 0.679178 1.41911 0.681757 1.12229C0.684336 0.825461 0.803396 0.541522 1.01329 0.331627C1.22319 0.121731 1.50713 0.0026722 1.80395 9.34601e-05C2.10078 -0.00248623 2.38674 0.111621 2.60026 0.317838L9.00441 6.72199C9.21664 6.93428 9.33586 7.22218 9.33586 7.52237C9.33586 7.82255 9.21664 8.11045 9.00441 8.32274L2.60026 14.7269C2.38796 14.9391 2.10006 15.0583 1.79988 15.0583C1.49969 15.0583 1.2118 14.9391 0.999502 14.7269Z" fill="#3B5F90"/>
</svg>
