<svg width="24" height="24" viewBox="0 0 24 24" fill="none" xmlns="http://www.w3.org/2000/svg">
<path d="M18.5 13.5L16.5586 14.2894C15.6118 14.6743 14.527 14.4622 13.7949 13.7489V13.7489C12.7962 12.7757 11.2038 12.7757 10.2051 13.7489V13.7489C9.47305 14.4622 8.38817 14.6743 7.44139 14.2894L5.5 13.5" stroke="white" stroke-width="1.5"/>
<path d="M16 7L17.1555 7.30852C18.0463 7.54637 18.7839 8.17049 19.1659 9.00965V9.00965C19.6884 10.1577 19.6161 11.4887 18.9721 12.5733L18.3962 13.5433C18.2168 13.8454 18.0919 14.1767 18.0271 14.522L17.4588 17.5529C17.1928 18.9718 15.9539 20 14.5102 20H9.48978C8.04613 20 6.80721 18.9718 6.54116 17.5529L5.97288 14.522C5.90813 14.1767 5.78322 13.8454 5.60383 13.5433L5.0279 12.5733C4.38394 11.4887 4.31157 10.1577 4.83414 9.00965V9.00965C5.21614 8.17049 5.95371 7.54637 6.84452 7.30852L8 7" stroke="white" stroke-width="1.5"/>
<path d="M8 8.5C8 6.29086 9.5454 4 12 4C14.4546 4 16 6.29086 16 8.5" stroke="white" stroke-width="1.5" stroke-linecap="round"/>
</svg>
