<svg width="24" height="24" viewBox="0 0 24 24" fill="none" xmlns="http://www.w3.org/2000/svg">
<path fill-rule="evenodd" clip-rule="evenodd" d="M12.2275 6.11493C12.1736 6.02491 12.0973 5.95039 12.006 5.89865C11.9147 5.84691 11.8116 5.81972 11.7067 5.81972C11.6018 5.81972 11.4986 5.84691 11.4074 5.89865C11.3161 5.95039 11.2398 6.02491 11.1859 6.11493L3.91284 18.2512C3.85764 18.3434 3.82786 18.4485 3.82656 18.5559C3.82526 18.6633 3.85247 18.7691 3.90542 18.8625C3.95837 18.9559 4.03517 19.0337 4.12797 19.0877C4.22076 19.1418 4.32624 19.1702 4.43364 19.1702H18.9821C19.0896 19.1705 19.1953 19.1421 19.2883 19.0882C19.3812 19.0342 19.4582 18.9565 19.5113 18.863C19.5644 18.7696 19.5917 18.6637 19.5904 18.5562C19.5892 18.4487 19.5594 18.3434 19.5042 18.2512L12.2275 6.11493ZM9.62468 5.18015C10.5655 3.60682 12.8466 3.60682 13.7887 5.17894L21.0641 17.314C22.0341 18.9323 20.8687 20.99 18.9809 20.99H4.43243C2.54467 20.9912 1.37923 18.9335 2.34921 17.3152L9.62468 5.18015ZM12.9207 16.7422C12.9207 17.0642 12.7928 17.373 12.5651 17.6007C12.3374 17.8283 12.0287 17.9562 11.7067 17.9562C11.3847 17.9562 11.0759 17.8283 10.8483 17.6007C10.6206 17.373 10.4927 17.0642 10.4927 16.7422C10.4927 16.4203 10.6206 16.1115 10.8483 15.8838C11.0759 15.6561 11.3847 15.5282 11.7067 15.5282C12.0287 15.5282 12.3374 15.6561 12.5651 15.8838C12.7928 16.1115 12.9207 16.4203 12.9207 16.7422ZM12.6172 9.76177C12.6172 9.52029 12.5212 9.2887 12.3505 9.11795C12.1797 8.9472 11.9482 8.85127 11.7067 8.85127C11.4652 8.85127 11.2336 8.9472 11.0629 9.11795C10.8921 9.2887 10.7962 9.52029 10.7962 9.76177V13.4038C10.7962 13.6452 10.8921 13.8768 11.0629 14.0476C11.2336 14.2183 11.4652 14.3142 11.7067 14.3142C11.9482 14.3142 12.1797 14.2183 12.3505 14.0476C12.5212 13.8768 12.6172 13.6452 12.6172 13.4038V9.76177Z" fill="white"/>
</svg>
